<svg width="20" height="20" viewBox="0 0 20 20" fill="none" xmlns="http://www.w3.org/2000/svg">
<path d="M9.95737 1.4286C8.48989 1.4286 7.16808 1.67853 6.15016 2.12643C5.6412 2.35039 5.20405 2.6225 4.86607 2.9755C4.52808 3.32851 4.28564 3.79327 4.28564 4.30703V15.0626C4.28565 15.5804 4.53384 16.046 4.87618 16.3981C5.21851 16.7501 5.66005 17.0211 6.17349 17.2444C7.20036 17.6911 8.53226 17.9426 9.99973 17.9426C11.4672 17.9426 12.7976 17.6911 13.8244 17.2444C14.3379 17.0211 14.7798 16.7501 15.1221 16.3981C15.4645 16.046 15.7142 15.5804 15.7142 15.0626V15.0619V15.0611V15.0603V15.0595V15.0588V15.058L15.6302 4.30703V4.30394V4.30274C15.6287 3.79068 15.3869 3.32751 15.0498 2.97549C14.7118 2.62249 14.2747 2.35037 13.7657 2.12642C12.7478 1.67852 11.4248 1.4286 9.95737 1.4286ZM9.95737 2.82155C11.2611 2.82155 12.4269 3.05952 13.2043 3.40159C13.593 3.57262 13.8816 3.77038 14.0437 3.93964C14.2057 4.1089 14.2373 4.21805 14.2373 4.30703C14.2373 4.396 14.2058 4.50632 14.0437 4.67558C13.8816 4.84484 13.593 5.04259 13.2043 5.21363C12.4269 5.5557 11.2611 5.79406 9.95737 5.79406C8.65367 5.79406 7.48894 5.5557 6.71155 5.21363C6.32285 5.04259 6.03465 4.84484 5.87259 4.67558C5.71122 4.50704 5.67886 4.39697 5.67859 4.30819V4.30699C5.67859 4.21802 5.71057 4.10887 5.87259 3.93961C6.03465 3.77035 6.32285 3.57259 6.71155 3.40155C7.48894 3.05948 8.65367 2.82155 9.95737 2.82155ZM14.2521 6.2458L14.3197 15.0626C14.3197 15.1476 14.2884 15.2567 14.123 15.4269C13.9575 15.5971 13.6638 15.7961 13.2693 15.9677C12.4801 16.311 11.3034 16.5493 9.99973 16.5493C8.69604 16.5493 7.51819 16.311 6.72903 15.9677C6.33445 15.7961 6.04078 15.5971 5.8753 15.4269C5.70982 15.2567 5.67858 15.1476 5.67858 15.0626V6.25436C5.82767 6.3383 5.98504 6.41613 6.15016 6.48879C7.16808 6.93669 8.48988 7.18701 9.95735 7.18701C11.4248 7.18701 12.7478 6.93669 13.7657 6.48879C13.9363 6.41371 14.0986 6.33297 14.2521 6.2458Z" fill="black"/>
<path d="M7.56976 7.69312C7.38506 7.69317 7.20794 7.76656 7.07734 7.89716C6.94673 8.02776 6.87334 8.20489 6.87329 8.38959V13.3663C6.87334 13.551 6.94673 13.7281 7.07734 13.8587C7.20794 13.9893 7.38506 14.0627 7.56976 14.0628C7.75446 14.0627 7.93159 13.9893 8.06219 13.8587C8.1928 13.7281 8.26619 13.551 8.26624 13.3663V8.38959C8.26619 8.20489 8.1928 8.02777 8.06219 7.89717C7.93159 7.76656 7.75446 7.69317 7.56976 7.69312Z" fill="black"/>
<path d="M9.95722 8.29114C9.77251 8.29119 9.59539 8.36459 9.46479 8.49519C9.33418 8.62579 9.26079 8.80292 9.26074 8.98762V13.9628C9.26079 14.1475 9.33418 14.3247 9.46479 14.4553C9.59539 14.5859 9.77252 14.6593 9.95722 14.6593C10.0488 14.6595 10.1395 14.6416 10.2242 14.6067C10.3088 14.5718 10.3858 14.5205 10.4506 14.4558C10.5154 14.3911 10.5669 14.3143 10.602 14.2297C10.6371 14.1451 10.6551 14.0544 10.6552 13.9628V8.98762C10.6551 8.89604 10.6371 8.80536 10.602 8.72078C10.5669 8.63619 10.5154 8.55936 10.4506 8.49467C10.3858 8.42998 10.3088 8.37871 10.2242 8.34378C10.1395 8.30886 10.0488 8.29097 9.95722 8.29114Z" fill="black"/>
<path d="M12.3466 7.69312C12.1619 7.69317 11.9848 7.76656 11.8542 7.89717C11.7236 8.02777 11.6502 8.20489 11.6501 8.38959V13.3663C11.6502 13.551 11.7236 13.7281 11.8542 13.8587C11.9848 13.9893 12.1619 14.0627 12.3466 14.0628C12.5313 14.0627 12.7084 13.9893 12.839 13.8587C12.9697 13.7281 13.043 13.551 13.0431 13.3663V8.38959C13.043 8.20489 12.9697 8.02776 12.839 7.89716C12.7084 7.76656 12.5313 7.69317 12.3466 7.69312Z" fill="black"/>
</svg>
