<svg width="21" height="20" viewBox="0 0 21 20" fill="none" xmlns="http://www.w3.org/2000/svg">
<path d="M9.66669 2.5C9.20645 2.5 8.83336 2.8731 8.83336 3.33333V4.6952C8.83336 5.04838 8.60739 5.3571 8.29066 5.51336C8.09274 5.61101 7.90222 5.72137 7.72016 5.84337C7.42666 6.04004 7.04619 6.08142 6.74022 5.90477L5.55985 5.22329C5.16128 4.99317 4.65162 5.12973 4.4215 5.52831L3.58816 6.97168C3.35805 7.37026 3.49461 7.87992 3.89319 8.11004L5.07366 8.79159C5.37922 8.968 5.53373 9.31755 5.51076 9.66962C5.50364 9.77883 5.50002 9.88899 5.50002 10C5.50002 10.111 5.50364 10.2212 5.51076 10.3304C5.53373 10.6824 5.37922 11.032 5.07366 11.2084L3.89319 11.89C3.49461 12.1201 3.35805 12.6297 3.58816 13.0283L4.4215 14.4717C4.65162 14.8703 5.16128 15.0068 5.55985 14.7767L6.74022 14.0952C7.04618 13.9186 7.42666 13.96 7.72015 14.1566C7.90222 14.2786 8.09274 14.389 8.29066 14.4866C8.60739 14.6429 8.83336 14.9516 8.83336 15.3048V16.6667C8.83336 17.1269 9.20645 17.5 9.66669 17.5H11.3334C11.7936 17.5 12.1667 17.1269 12.1667 16.6667V15.3048C12.1667 14.9516 12.3927 14.6429 12.7094 14.4866C12.9073 14.389 13.0978 14.2786 13.2799 14.1566C13.5734 13.96 13.9539 13.9186 14.2598 14.0952L15.4402 14.7767C15.8388 15.0068 16.3484 14.8703 16.5785 14.4717L17.4119 13.0283C17.642 12.6297 17.5054 12.1201 17.1069 11.89L15.9264 11.2084C15.6208 11.032 15.4663 10.6824 15.4893 10.3304C15.4964 10.2212 15.5 10.111 15.5 10C15.5 9.88899 15.4964 9.77883 15.4893 9.66962C15.4663 9.31755 15.6208 8.968 15.9264 8.79159L17.1069 8.11004C17.5054 7.87992 17.642 7.37026 17.4119 6.97168L16.5785 5.52831C16.3484 5.12973 15.8388 4.99317 15.4402 5.22329L14.2598 5.90477C13.9539 6.08142 13.5734 6.04004 13.2799 5.84337C13.0978 5.72137 12.9073 5.61101 12.7094 5.51336C12.3927 5.3571 12.1667 5.04838 12.1667 4.6952V3.33333C12.1667 2.8731 11.7936 2.5 11.3334 2.5H9.66669Z" stroke="white" stroke-width="1.5" stroke-linecap="round" stroke-linejoin="round"/>
<path d="M13 10C13 11.3807 11.8807 12.5 10.5 12.5C9.11931 12.5 8.00002 11.3807 8.00002 10C8.00002 8.61929 9.11931 7.5 10.5 7.5C11.8807 7.5 13 8.61929 13 10Z" stroke="white" stroke-width="1.5" stroke-linecap="round" stroke-linejoin="round"/>
</svg>
