<svg width="134" height="134" viewBox="0 0 134 134" fill="none" xmlns="http://www.w3.org/2000/svg">
<path d="M62.8125 58.625C60.503 58.625 58.625 60.503 58.625 62.8125V67H67V62.8125C67 60.503 65.122 58.625 62.8125 58.625Z" fill="url(#paint0_linear_28575_140287)"/>
<path d="M85.8438 50.25H48.1562V83.75H85.8438V50.25ZM71.1875 77.4688C71.1875 78.625 70.25 79.5625 69.0938 79.5625C67.9375 79.5625 67 78.625 67 77.4688V71.1875H58.625V77.4688C58.625 78.625 57.6875 79.5625 56.5312 79.5625C55.375 79.5625 54.4375 78.625 54.4375 77.4688V62.8125C54.4375 58.1946 58.1946 54.4375 62.8125 54.4375C67.4304 54.4375 71.1875 58.1946 71.1875 62.8125V77.4688ZM79.5625 77.4688C79.5625 78.625 78.625 79.5625 77.4688 79.5625C76.3125 79.5625 75.375 78.625 75.375 77.4688V69.0938C75.375 67.9375 76.3125 67 77.4688 67C78.625 67 79.5625 67.9375 79.5625 69.0938V77.4688ZM77.4688 62.8125C76.3124 62.8125 75.375 61.875 75.375 60.7188C75.375 59.5624 76.3124 58.625 77.4688 58.625C78.6251 58.625 79.5625 59.5624 79.5625 60.7188C79.5625 61.875 78.6251 62.8125 77.4688 62.8125Z" fill="url(#paint1_linear_28575_140287)"/>
<path d="M64.9062 96.3125H60.7188V104.688C60.7188 105.844 59.7813 106.781 58.625 106.781C57.4687 106.781 56.5312 105.844 56.5312 104.688V96.3125H52.3438V104.688C52.3438 105.844 51.4063 106.781 50.25 106.781C49.0937 106.781 48.1562 105.844 48.1562 104.688V96.3125H43.9688C43.4136 96.3125 42.881 96.0917 42.4884 95.6991L36.2072 89.4178C35.8146 89.0253 35.5938 88.4926 35.5938 87.9375V85.8438H29.3125C28.1562 85.8438 27.2188 84.9063 27.2188 83.75C27.2188 82.5937 28.1562 81.6562 29.3125 81.6562H35.5938V77.4688H29.3125C28.1562 77.4688 27.2188 76.5313 27.2188 75.375C27.2188 74.2187 28.1562 73.2812 29.3125 73.2812H35.5938V69.0938H29.3125C28.1562 69.0938 27.2188 68.1563 27.2188 67C27.2188 65.8437 28.1562 64.9062 29.3125 64.9062H35.5938V60.7188H29.3125C28.1562 60.7188 27.2188 59.7813 27.2188 58.625C27.2188 57.4687 28.1562 56.5312 29.3125 56.5312H35.5938V52.3438H29.3125C28.1562 52.3438 27.2188 51.4063 27.2188 50.25C27.2188 49.0937 28.1562 48.1562 29.3125 48.1562H35.5938V46.0625C35.5938 45.5074 35.8146 44.9747 36.2072 44.5822L42.4884 38.3009C42.881 37.9083 43.4136 37.6875 43.9688 37.6875H48.1562V29.3125C48.1562 28.1562 49.0937 27.2188 50.25 27.2188C51.4063 27.2188 52.3438 28.1562 52.3438 29.3125V37.6875H56.5312V29.3125C56.5312 28.1562 57.4687 27.2188 58.625 27.2188C59.7813 27.2188 60.7188 28.1562 60.7188 29.3125V37.6875H64.9062V17.8789C62.6823 15.8806 59.7501 14.6562 56.5312 14.6562C53.8292 14.6562 51.2223 15.5212 49.0702 17.1119C48.0857 16.8716 47.0777 16.75 46.0625 16.75C39.2793 16.75 33.7341 22.1541 33.5072 28.8821C29.841 31.0045 27.4682 34.8403 27.2372 39.0963C22.1602 41.4824 18.8438 46.6279 18.8438 52.3438C18.8438 53.181 18.9194 54.0316 19.0687 54.8832C16.2153 58.2825 14.6562 62.5436 14.6562 67C14.6562 71.4564 16.2153 75.7175 19.0687 79.1168C18.9194 79.9684 18.8438 80.819 18.8438 81.6562C18.8438 87.3721 22.1602 92.5176 27.2372 94.9037C27.4682 99.1597 29.841 102.996 33.5072 105.118C33.7341 111.846 39.2793 117.25 46.0625 117.25C47.0777 117.25 48.0857 117.128 49.0702 116.888C51.2222 118.479 53.8292 119.344 56.5312 119.344C59.7501 119.344 62.6823 118.119 64.9062 116.121V96.3125Z" fill="url(#paint2_linear_28575_140287)"/>
<path d="M44.8357 41.875L39.7812 46.9294V87.0706L44.8357 92.125H89.1643L94.2188 87.0706V46.9294L89.1643 41.875H44.8357ZM87.9375 46.0625C89.0938 46.0625 90.0312 47 90.0312 48.1562V85.8438C90.0312 87 89.0938 87.9375 87.9375 87.9375H46.0625C44.9062 87.9375 43.9688 87 43.9688 85.8438V48.1562C43.9688 47 44.9062 46.0625 46.0625 46.0625H87.9375Z" fill="url(#paint3_linear_28575_140287)"/>
<path d="M119.344 67C119.344 62.5436 117.785 58.2825 114.931 54.8832C115.081 54.0316 115.156 53.181 115.156 52.3438C115.156 46.6279 111.84 41.4824 106.763 39.0963C106.532 34.8403 104.159 31.0045 100.493 28.8821C100.266 22.1541 94.7207 16.75 87.9375 16.75C86.9223 16.75 85.9143 16.8717 84.9298 17.1119C82.7778 15.5211 80.1708 14.6562 77.4688 14.6562C74.2499 14.6562 71.3177 15.8806 69.0938 17.8789V37.6875H73.2812V29.3125C73.2812 28.1562 74.2187 27.2188 75.375 27.2188C76.5313 27.2188 77.4688 28.1562 77.4688 29.3125V37.6875H81.6562V29.3125C81.6562 28.1562 82.5937 27.2188 83.75 27.2188C84.9063 27.2188 85.8438 28.1562 85.8438 29.3125V37.6875H90.0312C90.5864 37.6875 91.119 37.9083 91.5116 38.3009L97.7928 44.5822C98.1854 44.9747 98.4062 45.5074 98.4062 46.0625V48.1562H104.688C105.844 48.1562 106.781 49.0937 106.781 50.25C106.781 51.4063 105.844 52.3438 104.688 52.3438H98.4062V56.5312H104.688C105.844 56.5312 106.781 57.4687 106.781 58.625C106.781 59.7813 105.844 60.7188 104.688 60.7188H98.4062V64.9062H104.688C105.844 64.9062 106.781 65.8437 106.781 67C106.781 68.1563 105.844 69.0938 104.688 69.0938H98.4062V73.2812H104.688C105.844 73.2812 106.781 74.2187 106.781 75.375C106.781 76.5313 105.844 77.4688 104.688 77.4688H98.4062V81.6562H104.688C105.844 81.6562 106.781 82.5937 106.781 83.75C106.781 84.9063 105.844 85.8438 104.688 85.8438H98.4062V87.9375C98.4062 88.4926 98.1854 89.0253 97.7928 89.4178L91.5116 95.6991C91.119 96.0917 90.5864 96.3125 90.0312 96.3125H85.8438V104.688C85.8438 105.844 84.9063 106.781 83.75 106.781C82.5937 106.781 81.6562 105.844 81.6562 104.688V96.3125H77.4688V104.688C77.4688 105.844 76.5313 106.781 75.375 106.781C74.2187 106.781 73.2812 105.844 73.2812 104.688V96.3125H69.0938V116.121C71.3177 118.119 74.2499 119.344 77.4688 119.344C80.1708 119.344 82.7777 118.479 84.9298 116.888C85.9143 117.128 86.9223 117.25 87.9375 117.25C94.7207 117.25 100.266 111.846 100.493 105.118C104.159 102.996 106.532 99.1597 106.763 94.9037C111.84 92.5176 115.156 87.3721 115.156 81.6562C115.156 80.819 115.081 79.9684 114.931 79.1168C117.785 75.7175 119.344 71.4564 119.344 67Z" fill="url(#paint4_linear_28575_140287)"/>
<defs>
<linearGradient id="paint0_linear_28575_140287" x1="62.8125" y1="58.625" x2="62.8125" y2="67" gradientUnits="userSpaceOnUse">
<stop stop-color="#0070D3"/>
<stop offset="1" stop-color="#023562"/>
</linearGradient>
<linearGradient id="paint1_linear_28575_140287" x1="67" y1="50.25" x2="67" y2="83.75" gradientUnits="userSpaceOnUse">
<stop stop-color="#0070D3"/>
<stop offset="1" stop-color="#023562"/>
</linearGradient>
<linearGradient id="paint2_linear_28575_140287" x1="39.7812" y1="14.6562" x2="39.7813" y2="119.344" gradientUnits="userSpaceOnUse">
<stop stop-color="#0070D3"/>
<stop offset="1" stop-color="#023562"/>
</linearGradient>
<linearGradient id="paint3_linear_28575_140287" x1="67" y1="41.875" x2="67" y2="92.125" gradientUnits="userSpaceOnUse">
<stop stop-color="#0070D3"/>
<stop offset="1" stop-color="#023562"/>
</linearGradient>
<linearGradient id="paint4_linear_28575_140287" x1="94.2188" y1="14.6562" x2="94.2188" y2="119.344" gradientUnits="userSpaceOnUse">
<stop stop-color="#0070D3"/>
<stop offset="1" stop-color="#023562"/>
</linearGradient>
</defs>
</svg>
