<svg width="18" height="18" viewBox="0 0 18 18" fill="none" xmlns="http://www.w3.org/2000/svg">
<g id="Close2">
<path id="Exclude" fill-rule="evenodd" clip-rule="evenodd" d="M9 18C13.9706 18 18 13.9706 18 9C18 4.02944 13.9706 0 9 0C4.02944 0 0 4.02944 0 9C0 13.9706 4.02944 18 9 18ZM5.23431 5.23431C5.54673 4.9219 6.05327 4.9219 6.36569 5.23431L9 7.86863L11.6343 5.23431C11.9467 4.9219 12.4533 4.9219 12.7657 5.23431C13.0781 5.54673 13.0781 6.05327 12.7657 6.36569L10.1314 9L12.7657 11.6343C13.0781 11.9467 13.0781 12.4533 12.7657 12.7657C12.4533 13.0781 11.9467 13.0781 11.6343 12.7657L9 10.1314L6.36569 12.7657C6.05327 13.0781 5.54673 13.0781 5.23431 12.7657C4.9219 12.4533 4.9219 11.9467 5.23431 11.6343L7.86863 9L5.23431 6.36569C4.9219 6.05327 4.9219 5.54673 5.23431 5.23431Z" fill="#F64C4C"/>
</g>
</svg>
