<svg width="21" height="20" viewBox="0 0 21 20" fill="none" xmlns="http://www.w3.org/2000/svg">
<path d="M3.83331 4.16666C3.83331 3.70642 4.20641 3.33333 4.66665 3.33333H7.99998C8.46022 3.33333 8.83331 3.70642 8.83331 4.16666V7.49999C8.83331 7.96023 8.46022 8.33333 7.99998 8.33333H4.66665C4.20641 8.33333 3.83331 7.96023 3.83331 7.49999V4.16666Z" stroke="white" stroke-width="1.5" stroke-linecap="round" stroke-linejoin="round"/>
<path d="M3.83331 12.5C3.83331 12.0398 4.20641 11.6667 4.66665 11.6667H7.99998C8.46022 11.6667 8.83331 12.0398 8.83331 12.5V15.8333C8.83331 16.2936 8.46022 16.6667 7.99998 16.6667H4.66665C4.20641 16.6667 3.83331 16.2936 3.83331 15.8333V12.5Z" stroke="white" stroke-width="1.5" stroke-linecap="round" stroke-linejoin="round"/>
<path d="M12.1666 4.16666C12.1666 3.70642 12.5397 3.33333 13 3.33333H16.3333C16.7935 3.33333 17.1666 3.70642 17.1666 4.16666V7.49999C17.1666 7.96023 16.7935 8.33333 16.3333 8.33333H13C12.5397 8.33333 12.1666 7.96023 12.1666 7.49999V4.16666Z" stroke="white" stroke-width="1.5" stroke-linecap="round" stroke-linejoin="round"/>
<path d="M12.1666 12.5C12.1666 12.0398 12.5397 11.6667 13 11.6667H16.3333C16.7935 11.6667 17.1666 12.0398 17.1666 12.5V15.8333C17.1666 16.2936 16.7935 16.6667 16.3333 16.6667H13C12.5397 16.6667 12.1666 16.2936 12.1666 15.8333V12.5Z" stroke="white" stroke-width="1.5" stroke-linecap="round" stroke-linejoin="round"/>
</svg>
