<svg width="20" height="20" viewBox="0 0 20 20" fill="none" xmlns="http://www.w3.org/2000/svg">
<path d="M9.99815 10.0001L16.9877 5.96464M9.99815 10.0001L3.00584 5.95821M9.99815 10.0001L9.99813 17.5001M2.78125 6.79564V13.2045C2.78125 13.7999 3.09891 14.3501 3.61458 14.6479L9.1648 17.8523C9.68046 18.15 10.3158 18.15 10.8315 17.8523L16.3817 14.6479C16.8973 14.3501 17.215 13.7999 17.215 13.2045V6.79564C17.215 6.2002 16.8973 5.64999 16.3817 5.35227L10.8315 2.14785C10.3158 1.85013 9.68046 1.85013 9.1648 2.14785L3.61458 5.35227C3.09891 5.64999 2.78125 6.2002 2.78125 6.79564Z" stroke="#344051" stroke-width="1.5" stroke-linecap="round" stroke-linejoin="round"/>
</svg>
