<svg width="586" height="402" viewBox="0 0 586 402" fill="none" xmlns="http://www.w3.org/2000/svg">
<path d="M206.614 308.15L207.547 307.194C208.73 305.982 210.717 305.554 213.219 306.199L212.287 307.155C209.784 306.51 207.798 306.937 206.614 308.15Z" fill="#CBDBF4"/>
<path d="M223.803 323.033L222.871 323.988C224.038 322.792 224.423 320.832 223.751 318.387C222.394 313.456 217.266 308.425 212.297 307.144L213.229 306.188C218.198 307.469 223.326 312.501 224.683 317.432C225.355 319.876 224.97 321.836 223.803 323.033Z" fill="#CBDBF4"/>
<path d="M212.308 307.15C217.277 308.431 222.405 313.463 223.762 318.394C225.115 323.314 222.185 326.272 217.216 324.991C212.243 323.709 207.11 318.672 205.757 313.753C204.4 308.822 207.335 305.869 212.308 307.15Z" fill="#DBE6FA"/>
<path d="M204.283 311.548L206.63 309.142C207.731 308.014 209.58 307.616 211.909 308.216L209.562 310.622C207.233 310.021 205.384 310.419 204.283 311.548Z" fill="#EBF2FF"/>
<path d="M221.733 323.898L219.386 326.304C220.472 325.191 220.83 323.367 220.204 321.091C218.941 316.5 214.164 311.814 209.538 310.621L211.886 308.216C216.512 309.408 221.288 314.094 222.551 318.685C223.177 320.962 222.819 322.785 221.733 323.898Z" fill="#EBF2FF"/>
<path d="M209.53 310.622C214.156 311.814 218.932 316.501 220.195 321.092C221.456 325.676 218.725 328.423 214.099 327.23C209.469 326.037 204.694 321.355 203.433 316.771C202.17 312.18 204.9 309.428 209.53 310.622Z" fill="#EBF2FF"/>
<path d="M203.833 310.967L204.765 310.011C205.949 308.798 207.935 308.371 210.438 309.016L209.506 309.972C207.003 309.326 205.016 309.754 203.833 310.967Z" fill="#CBDBF4"/>
<path d="M221.03 325.85L220.097 326.805C221.265 325.609 221.65 323.649 220.977 321.204C219.621 316.273 214.492 311.241 209.524 309.961L210.456 309.005C215.425 310.286 220.553 315.317 221.909 320.249C222.582 322.693 222.197 324.653 221.03 325.85Z" fill="#CBDBF4"/>
<path d="M209.511 309.968C214.48 311.249 219.608 316.281 220.965 321.212C222.318 326.131 219.388 329.089 214.419 327.808C209.447 326.526 204.313 321.49 202.96 316.57C201.603 311.639 204.538 308.686 209.511 309.968Z" fill="#DBE6FA"/>
<path d="M201.533 314.372L203.88 311.966C204.981 310.838 206.83 310.44 209.159 311.04L206.812 313.446C204.483 312.845 202.634 313.243 201.533 314.372Z" fill="#EBF2FF"/>
<path d="M218.983 326.722L216.636 329.128C217.722 328.015 218.08 326.192 217.454 323.916C216.191 319.324 211.414 314.638 206.788 313.446L209.136 311.04C213.762 312.233 218.538 316.919 219.801 321.51C220.427 323.786 220.069 325.61 218.983 326.722Z" fill="#EBF2FF"/>
<path d="M206.803 313.467C211.429 314.66 216.205 319.346 217.468 323.937C218.729 328.521 215.998 331.268 211.372 330.076C206.743 328.882 201.968 324.2 200.707 319.616C199.443 315.025 202.173 312.274 206.803 313.467Z" fill="#EBF2FF"/>
<path d="M201.107 313.805L202.039 312.85C203.222 311.637 205.209 311.21 207.712 311.855L206.779 312.81C204.276 312.165 202.29 312.593 201.107 313.805Z" fill="#CBDBF4"/>
<path d="M218.272 328.709L217.34 329.664C218.507 328.468 218.892 326.508 218.219 324.063C216.863 319.132 211.735 314.101 206.766 312.82L207.698 311.864C212.667 313.145 217.795 318.177 219.152 323.108C219.824 325.552 219.439 327.512 218.272 328.709Z" fill="#CBDBF4"/>
<path d="M206.777 312.806C211.746 314.087 216.874 319.118 218.231 324.049C219.584 328.969 216.654 331.927 211.685 330.646C206.712 329.364 201.579 324.328 200.226 319.408C198.869 314.477 201.804 311.524 206.777 312.806Z" fill="#DBE6FA"/>
<path d="M198.737 317.21L201.084 314.804C202.185 313.676 204.033 313.278 206.362 313.878L204.015 316.284C201.686 315.683 199.838 316.082 198.737 317.21Z" fill="#EBF2FF"/>
<path d="M216.209 329.539L213.862 331.945C214.948 330.832 215.306 329.008 214.68 326.732C213.417 322.141 208.641 317.455 204.015 316.262L206.362 313.857C210.988 315.049 215.764 319.735 217.027 324.327C217.653 326.603 217.295 328.426 216.209 329.539Z" fill="#EBF2FF"/>
<path d="M204.022 316.287C208.648 317.479 213.424 322.165 214.687 326.757C215.948 331.34 213.217 334.088 208.591 332.895C203.961 331.702 199.186 327.019 197.925 322.436C196.662 317.844 199.392 315.093 204.022 316.287Z" fill="#EBF2FF"/>
<path d="M198.341 316.616L199.273 315.66C200.456 314.448 202.443 314.02 204.946 314.665L204.014 315.621C201.511 314.976 199.524 315.403 198.341 316.616Z" fill="#CBDBF4"/>
<path d="M215.506 331.5L214.574 332.455C215.741 331.259 216.126 329.299 215.454 326.854C214.097 321.923 208.969 316.891 204 315.611L204.932 314.655C209.901 315.936 215.029 320.967 216.386 325.899C217.059 328.343 216.673 330.303 215.506 331.5Z" fill="#CBDBF4"/>
<path d="M204.011 315.618C208.98 316.898 214.108 321.93 215.465 326.861C216.818 331.781 213.888 334.739 208.919 333.458C203.947 332.176 198.813 327.139 197.46 322.22C196.103 317.289 199.038 314.336 204.011 315.618Z" fill="#EBF2FF"/>
<path d="M213.128 328.297C212.959 330.364 211.155 331.691 208.224 330.935C204.658 330.017 200.984 326.408 200.01 322.877C199.207 319.949 200.504 317.767 203.481 317.943L203.482 317.945C208.162 318.24 213.586 324.121 213.128 328.297Z" fill="#CBDBF4"/>
<path d="M212.872 329.319C212.839 329.398 212.804 329.475 212.766 329.548C209.596 331.976 202.448 327.395 200.981 322.06C200.54 320.453 200.745 319.145 201.438 318.288C201.511 318.254 201.548 318.236 201.629 318.202C199.665 321.595 204.367 328.216 209.503 329.54C210.88 329.895 212.036 329.788 212.872 329.319Z" fill="#BBCFEF"/>
<path d="M213.137 328.298C213.126 328.425 213.108 328.547 213.083 328.667C212.346 328.867 211.453 328.857 210.437 328.597C205.746 327.388 201.273 321.658 202.254 318.021C202.37 317.995 202.489 317.977 202.611 317.963C201.901 322.578 208.561 329.054 213.137 328.298Z" fill="#BBCFEF"/>
<path d="M213.076 326.92C213.103 327.088 213.122 327.252 213.135 327.413C208.874 327.272 203.701 322.155 203.482 317.952C203.641 317.962 203.804 317.979 203.972 318.004C204.557 322.014 209.129 326.441 213.076 326.92Z" fill="#BBCFEF"/>
<path d="M212.75 325.701C209.508 324.692 206.259 321.508 205.188 318.297C205.425 318.372 205.665 318.462 205.904 318.563C207.081 321.281 209.719 323.865 212.47 324.99C212.577 325.226 212.671 325.462 212.75 325.701Z" fill="#BBCFEF"/>
<path d="M191.709 324.418L197.924 318.048C199.025 316.919 200.873 316.521 203.203 317.122L196.988 323.492C194.658 322.892 192.81 323.29 191.709 324.418Z" fill="#BBCFEF"/>
<path d="M213.05 332.806L206.835 339.177C207.921 338.064 208.279 336.24 207.653 333.964C206.39 329.373 201.613 324.687 196.987 323.494L203.203 317.124C207.829 318.316 212.605 323.002 213.868 327.594C214.494 329.87 214.136 331.693 213.05 332.806Z" fill="#BBCFEF"/>
<path d="M213.855 327.609C214.478 329.889 214.124 331.71 213.034 332.824L206.822 339.192C207.906 338.08 208.266 336.258 207.638 333.979L213.855 327.609Z" fill="#DBE6FA"/>
<path d="M196.975 323.509C201.601 324.701 206.377 329.387 207.64 333.979C208.901 338.562 206.17 341.31 201.544 340.117C196.915 338.924 192.14 334.241 190.879 329.658C189.615 325.066 192.345 322.315 196.975 323.509Z" fill="#EBF2FF"/>
<path d="M194.403 353.892C194.424 353.87 194.441 353.844 194.452 353.813L207.309 340.634C207.268 340.746 194.324 353.973 194.403 353.892Z" fill="#BBCFEF"/>
<path d="M179.089 333.666L191.946 320.488C192.012 320.42 192.122 320.399 192.255 320.434L179.398 333.612C179.265 333.578 179.154 333.599 179.089 333.666Z" fill="#DBE6FA"/>
<path d="M197.056 346.662L209.913 333.483L207.325 340.634L194.468 353.813L197.056 346.662Z" fill="#BBCFEF"/>
<path d="M196.926 346.179L209.783 333.001C209.912 333.173 209.963 333.359 209.916 333.486L197.059 346.665C197.106 346.537 197.054 346.352 196.926 346.179Z" fill="#BBCFEF"/>
<path d="M179.409 333.615L192.266 320.436L202.071 322.964L189.214 336.143L179.409 333.615Z" fill="#DBE6FA"/>
<path d="M189.69 336.488L202.547 323.31L209.766 332.988L196.909 346.167L189.69 336.488Z" fill="#CBDBF4"/>
<path d="M189.206 336.137L202.063 322.958C202.238 323.003 202.425 323.137 202.554 323.309L189.697 336.488C189.568 336.316 189.381 336.182 189.206 336.137Z" fill="#CBDBF4"/>
<path d="M189.208 336.14C189.727 336.274 189.482 336.317 196.917 346.17C197.045 346.342 197.097 346.528 197.05 346.655L194.462 353.806C194.416 353.933 194.279 353.985 194.105 353.94L184.3 351.412C184.125 351.367 183.937 351.232 183.808 351.059C176.567 341.236 176.315 341.284 176.456 340.895L179.045 333.745C179.091 333.618 179.228 333.567 179.402 333.612L189.208 336.14Z" fill="#EBF2FF"/>
<path d="M172.506 344.12L178.721 337.75C179.822 336.621 181.67 336.223 184 336.824L177.784 343.194C175.455 342.594 173.607 342.992 172.506 344.12Z" fill="#BBCFEF"/>
<path d="M193.847 352.506L187.632 358.877C188.718 357.764 189.076 355.941 188.45 353.664C187.186 349.073 182.41 344.387 177.784 343.194L183.999 336.824C188.625 338.017 193.401 342.703 194.665 347.294C195.291 349.57 194.933 351.393 193.847 352.506Z" fill="#BBCFEF"/>
<path d="M194.676 347.288C195.304 349.566 194.944 351.389 193.859 352.501L187.642 358.871C188.732 357.758 189.086 355.937 188.463 353.656L194.676 347.288Z" fill="#DBE6FA"/>
<path d="M177.788 343.189C182.414 344.381 187.19 349.068 188.453 353.659C189.714 358.243 186.983 360.99 182.357 359.797C177.727 358.604 172.952 353.922 171.691 349.338C170.428 344.747 173.158 341.995 177.788 343.189Z" fill="#EBF2FF"/>
<path d="M172.099 343.534L173.031 342.578C174.214 341.365 176.201 340.938 178.704 341.583L177.772 342.538C175.269 341.893 173.282 342.321 172.099 343.534Z" fill="#CBDBF4"/>
<path d="M189.272 358.417L188.34 359.372C189.507 358.176 189.892 356.216 189.219 353.771C187.863 348.84 182.735 343.808 177.766 342.527L178.698 341.572C183.667 342.853 188.795 347.884 190.152 352.816C190.824 355.26 190.439 357.22 189.272 358.417Z" fill="#CBDBF4"/>
<path d="M177.753 342.534C182.722 343.815 187.851 348.847 189.207 353.778C190.561 358.697 187.63 361.655 182.662 360.374C177.689 359.092 172.556 354.056 171.202 349.136C169.846 344.205 172.781 341.252 177.753 342.534Z" fill="#DBE6FA"/>
<path d="M169.737 346.936L172.084 344.53C173.185 343.402 175.033 343.004 177.362 343.604L175.015 346.01C172.686 345.409 170.838 345.807 169.737 346.936Z" fill="#EBF2FF"/>
<path d="M187.209 359.287L184.862 361.693C185.948 360.58 186.306 358.757 185.68 356.481C184.417 351.889 179.641 347.203 175.015 346.011L177.362 343.605C181.988 344.798 186.764 349.484 188.027 354.075C188.653 356.351 188.295 358.175 187.209 359.287Z" fill="#EBF2FF"/>
<path d="M175.006 346.011C179.632 347.204 184.408 351.89 185.672 356.481C186.933 361.065 184.202 363.812 179.576 362.62C174.946 361.426 170.171 356.744 168.91 352.161C167.647 347.569 170.377 344.818 175.006 346.011Z" fill="#EBF2FF"/>
<path d="M169.341 346.379L170.273 345.423C171.456 344.21 173.443 343.783 175.946 344.428L175.014 345.384C172.511 344.738 170.524 345.166 169.341 346.379Z" fill="#CBDBF4"/>
<path d="M186.53 361.262L185.597 362.218C186.765 361.021 187.15 359.061 186.477 356.617C185.121 351.686 179.992 346.654 175.024 345.373L175.956 344.418C180.925 345.698 186.053 350.73 187.409 355.661C188.082 358.106 187.697 360.066 186.53 361.262Z" fill="#CBDBF4"/>
<path d="M175.011 345.359C179.98 346.639 185.108 351.671 186.465 356.602C187.818 361.522 184.888 364.48 179.919 363.199C174.947 361.917 169.813 356.88 168.46 351.961C167.103 347.03 170.038 344.077 175.011 345.359Z" fill="#DBE6FA"/>
<path d="M166.979 349.754L169.326 347.349C170.427 346.22 172.275 345.822 174.604 346.423L172.257 348.828C169.928 348.228 168.08 348.626 166.979 349.754Z" fill="#EBF2FF"/>
<path d="M184.452 362.105L182.105 364.511C183.19 363.398 183.549 361.574 182.922 359.298C181.659 354.707 176.883 350.021 172.257 348.828L174.604 346.423C179.23 347.615 184.006 352.301 185.269 356.893C185.896 359.169 185.537 360.992 184.452 362.105Z" fill="#EBF2FF"/>
<path d="M172.249 348.85C176.875 350.043 181.651 354.729 182.914 359.32C184.175 363.904 181.444 366.651 176.818 365.459C172.188 364.265 167.413 359.583 166.152 354.999C164.889 350.408 167.619 347.657 172.249 348.85Z" fill="#EBF2FF"/>
<path d="M166.575 349.204L167.508 348.249C168.691 347.036 170.677 346.608 173.18 347.254L172.248 348.209C169.745 347.564 167.759 347.992 166.575 349.204Z" fill="#CBDBF4"/>
<path d="M183.764 364.089L182.832 365.044C183.999 363.848 184.384 361.888 183.712 359.443C182.355 354.512 177.227 349.481 172.258 348.2L173.19 347.244C178.159 348.525 183.287 353.557 184.644 358.488C185.316 360.932 184.931 362.892 183.764 364.089Z" fill="#CBDBF4"/>
<path d="M172.269 348.205C177.238 349.486 182.366 354.517 183.723 359.448C185.076 364.368 182.146 367.326 177.177 366.045C172.204 364.763 167.071 359.727 165.718 354.807C164.361 349.876 167.296 346.923 172.269 348.205Z" fill="#DBE6FA"/>
<path d="M164.197 352.582L166.545 350.176C167.645 349.048 169.494 348.65 171.823 349.25L169.476 351.656C167.147 351.055 165.298 351.453 164.197 352.582Z" fill="#EBF2FF"/>
<path d="M181.67 364.933L179.323 367.339C180.409 366.226 180.767 364.403 180.141 362.127C178.878 357.535 174.102 352.849 169.476 351.657L171.823 349.251C176.449 350.444 181.225 355.13 182.488 359.721C183.114 361.997 182.756 363.821 181.67 364.933Z" fill="#EBF2FF"/>
<path d="M169.467 351.679C174.093 352.872 178.869 357.558 180.132 362.149C181.393 366.733 178.663 369.48 174.037 368.288C169.407 367.094 164.632 362.412 163.371 357.828C162.108 353.237 164.837 350.486 169.467 351.679Z" fill="#EBF2FF"/>
<path d="M163.786 352.031L164.719 351.076C165.902 349.863 167.888 349.435 170.391 350.08L169.459 351.036C166.956 350.391 164.969 350.818 163.786 352.031Z" fill="#CBDBF4"/>
<path d="M180.975 366.914L180.043 367.87C181.21 366.673 181.595 364.713 180.923 362.269C179.566 357.338 174.438 352.306 169.469 351.025L170.401 350.07C175.37 351.35 180.498 356.382 181.855 361.313C182.527 363.758 182.142 365.718 180.975 366.914Z" fill="#CBDBF4"/>
<path d="M169.48 351.032C174.449 352.313 179.577 357.344 180.934 362.276C182.287 367.195 179.357 370.153 174.388 368.872C169.415 367.59 164.282 362.554 162.929 357.634C161.572 352.703 164.507 349.75 169.48 351.032Z" fill="#DBE6FA"/>
<path d="M178.589 363.716C178.42 365.784 176.616 367.111 173.685 366.355C170.119 365.436 166.445 361.828 165.471 358.297C164.668 355.369 165.965 353.187 168.942 353.363L168.943 353.365C173.622 353.66 179.047 359.541 178.589 363.716Z" fill="#CBDBF4"/>
<path d="M178.333 364.722C178.3 364.8 178.265 364.878 178.227 364.951C175.057 367.379 167.909 362.798 166.442 357.463C166.001 355.856 166.206 354.548 166.899 353.691C166.972 353.657 167.008 353.639 167.09 353.605C165.126 356.998 169.828 363.619 174.964 364.943C176.341 365.298 177.497 365.191 178.333 364.722Z" fill="#BBCFEF"/>
<path d="M178.598 363.72C178.587 363.846 178.569 363.969 178.544 364.089C177.807 364.289 176.914 364.279 175.898 364.019C171.207 362.81 166.734 357.08 167.715 353.443C167.831 353.417 167.95 353.399 168.072 353.385C167.362 358 174.022 364.476 178.598 363.72Z" fill="#BBCFEF"/>
<path d="M178.537 362.32C178.564 362.488 178.583 362.652 178.596 362.814C174.335 362.673 169.162 357.556 168.943 353.352C169.102 353.362 169.265 353.38 169.433 353.405C170.018 357.415 174.589 361.842 178.537 362.32Z" fill="#BBCFEF"/>
<path d="M178.227 361.122C174.985 360.113 171.735 356.929 170.664 353.719C170.902 353.794 171.142 353.883 171.38 353.984C172.558 356.702 175.196 359.286 177.947 360.412C178.054 360.647 178.148 360.883 178.227 361.122Z" fill="#BBCFEF"/>
<path d="M391.413 146.569C391.455 167.041 386.053 187.156 375.762 204.853C373.913 208.061 371.895 211.17 369.718 214.165V214.222C365.972 219.36 361.838 224.204 357.352 228.71C352.841 233.212 347.978 237.348 342.808 241.075C339.799 243.261 336.671 245.279 333.439 247.12C311.249 260.01 285.423 265.212 259.972 261.917C234.522 258.621 210.872 247.014 192.697 228.897C174.521 210.781 162.837 187.169 159.459 161.729C156.081 136.29 161.199 110.447 174.017 88.2152C186.835 65.9831 206.636 48.6063 230.345 38.7838C254.053 28.9613 280.342 27.2431 305.127 33.896C329.912 40.5489 351.807 55.2005 367.41 75.5749C383.012 95.9494 391.45 120.906 391.413 146.569Z" fill="#DCDFE0"/>
<path d="M331.279 202.612C320.189 213.696 306.062 221.243 290.683 224.299C275.304 227.355 259.365 225.783 244.88 219.781C230.395 213.779 218.015 203.616 209.304 190.579C200.594 177.541 195.945 162.214 195.945 146.535C195.945 130.856 200.594 115.528 209.304 102.491C218.015 89.4533 230.395 79.2911 244.88 73.289C259.365 67.2869 275.304 65.7144 290.683 68.7704C306.062 71.8263 320.189 79.3734 331.279 90.4575C338.711 97.7835 344.612 106.514 348.64 116.141C352.668 125.768 354.742 136.099 354.742 146.535C354.742 156.971 352.668 167.302 348.64 176.929C344.612 186.556 338.711 195.286 331.279 202.612Z" fill="#EFE5E5"/>
<path d="M460.757 332.039C455.119 337.621 447.505 340.752 439.57 340.752C431.636 340.752 424.022 337.621 418.383 332.039L333.438 247.116C336.67 245.275 339.797 243.257 342.806 241.071C347.976 237.344 352.84 233.208 357.351 228.706C361.837 224.2 365.971 219.356 369.716 214.218V214.161C371.894 211.166 373.911 208.057 375.761 204.849L460.707 289.716C466.3 295.335 469.445 302.938 469.455 310.867C469.464 318.796 466.338 326.407 460.757 332.039Z" fill="#C2C2C3"/>
<path d="M524.226 122.971L485.055 168.301C480.806 173.219 473.382 173.759 468.464 169.51L465.683 167.107C460.77 162.861 460.225 155.434 464.474 150.517L503.645 105.187L524.226 122.971Z" fill="#B9C1CB"/>
<path d="M491.031 119.788L503.701 105.122L524.291 122.91L511.621 137.576L491.031 119.788Z" fill="#A0AAB7"/>
<path d="M471.03 171.194C470.119 170.757 469.256 170.194 468.46 169.506L465.679 167.103C460.762 162.854 460.217 155.427 464.466 150.509L503.637 105.179L511.034 111.571L471.863 156.901C468.305 161.019 468.107 166.901 471.03 171.194Z" fill="#A0AAB7"/>
<path d="M489.236 166.247C488.954 166.187 488.675 166.094 488.403 165.967L462.849 153.939C460.954 153.047 460.141 150.788 461.033 148.893C461.925 146.998 464.187 146.186 466.079 147.077L491.633 159.105C493.528 159.996 494.341 162.255 493.45 164.15C492.685 165.774 490.918 166.603 489.236 166.247Z" fill="#A0AAB7"/>
<path d="M497.431 156.766C497.149 156.706 496.871 156.614 496.599 156.486L471.045 144.459C469.15 143.567 468.337 141.308 469.228 139.413C470.121 137.518 472.383 136.705 474.274 137.596L499.828 149.624C501.723 150.516 502.536 152.774 501.645 154.67C500.881 156.293 499.113 157.122 497.431 156.766Z" fill="#A0AAB7"/>
<path d="M505.619 147.295C505.337 147.235 505.059 147.142 504.787 147.015L479.232 134.987C477.337 134.095 476.524 131.836 477.416 129.941C478.308 128.045 480.571 127.234 482.462 128.125L508.016 140.153C509.911 141.045 510.724 143.304 509.833 145.199C509.069 146.822 507.301 147.651 505.619 147.295Z" fill="#A0AAB7"/>
<path d="M534.111 129.028L526.488 137.851L488.586 105.099L496.21 96.2765C501.537 90.1114 510.855 89.4322 517.02 94.7596L520.106 97.4267L515.533 102.719C513.29 105.314 513.576 109.239 516.172 111.482C518.768 113.725 522.692 113.44 524.935 110.843L529.508 105.551L532.595 108.218C538.76 113.545 539.439 122.863 534.111 129.028Z" fill="#B9C1CB"/>
<path d="M520.106 97.4267L518.514 99.2693C513.763 98.6452 508.802 100.35 505.434 104.248L497.81 113.07L488.586 105.099L496.21 96.2765C501.537 90.1114 510.855 89.4322 517.02 94.7596L520.106 97.4267Z" fill="#A0AAB7"/>
<path d="M122.395 122.207L95.5314 196.89L84.2312 205.32L80.8901 191.623L107.752 116.945L115.073 119.578L115.074 119.574L122.395 122.207Z" fill="#F1F4F6"/>
<path d="M121.638 124.303L116.999 137.2C114.945 136.173 112.545 135.115 109.835 134.141C107.122 133.165 104.597 132.455 102.357 131.933L106.994 119.041C109.302 119.625 111.806 120.371 114.447 121.321C117.084 122.27 119.485 123.288 121.638 124.303Z" fill="#E7ECF1"/>
<path d="M115.058 119.581L84.2159 205.323L80.8748 191.627L107.737 116.948L115.058 119.581Z" fill="#E7ECF1"/>
<path d="M92.4802 123.302C89.8766 122.365 88.0103 119.883 87.9835 116.95C87.9491 113.189 90.9862 110.111 94.7483 110.077C95.1409 110.073 104.509 110.04 116.9 114.497C129.291 118.954 136.492 124.947 136.792 125.2C139.671 127.623 140.04 131.92 137.617 134.799C135.2 137.67 130.92 138.046 128.04 135.642C127.944 135.562 122.199 130.882 112.288 127.317C102.343 123.74 94.916 123.7 94.8425 123.701C94.0132 123.708 93.2169 123.566 92.4802 123.302Z" fill="#F1F4F6"/>
<path d="M94.7487 110.078C95.0217 110.073 99.6236 110.059 106.561 111.542C106.17 111.531 105.936 111.533 105.876 111.533C101.575 111.574 98.1024 115.089 98.1419 119.394C98.1572 121.195 98.7805 122.848 99.8156 124.158C96.7348 123.713 94.88 123.7 94.8419 123.699C94.0115 123.711 93.2153 123.566 92.4801 123.302C89.8772 122.366 88.0116 119.882 87.9859 116.951C87.9488 113.188 90.988 110.111 94.7487 110.078Z" fill="#E7ECF1"/>
</svg>
