<svg width="24" height="24" viewBox="0 0 24 24" fill="none" xmlns="http://www.w3.org/2000/svg">
<g id="Error">
<path id="Subtract" fill-rule="evenodd" clip-rule="evenodd" d="M22 12C22 17.5229 17.5228 22 12 22C6.47717 22 2 17.5229 2 12C2 6.47714 6.47717 2 12 2C17.5228 2 22 6.47714 22 12ZM11 7C11 6.44772 11.4478 6 12 6C12.5522 6 13 6.44772 13 7L13 13C13 13.5523 12.5522 14 12 14C11.4478 14 11 13.5523 11 13L11 7ZM12 16C11.4478 16 11 16.4477 11 17C11 17.5523 11.4478 18 12 18C12.5522 18 13 17.5523 13 17C13 16.4477 12.5522 16 12 16Z" fill="#C20A0A"/>
</g>
</svg>
