<svg width="15" height="15" viewBox="0 0 15 15" fill="none" xmlns="http://www.w3.org/2000/svg">
<path fill-rule="evenodd" clip-rule="evenodd" d="M13.75 7.5C13.75 10.9518 10.9518 13.75 7.5 13.75C4.04823 13.75 1.25 10.9518 1.25 7.5C1.25 4.04821 4.04823 1.25 7.5 1.25C10.9518 1.25 13.75 4.04821 13.75 7.5ZM6.875 4.375C6.875 4.02983 7.15485 3.75 7.5 3.75C7.84515 3.75 8.125 4.02983 8.125 4.375V8.125C8.125 8.47017 7.84515 8.75 7.5 8.75C7.15485 8.75 6.875 8.47017 6.875 8.125L6.875 4.375ZM7.5 10C7.15485 10 6.875 10.2798 6.875 10.625C6.875 10.9702 7.15485 11.25 7.5 11.25C7.84515 11.25 8.125 10.9702 8.125 10.625C8.125 10.2798 7.84515 10 7.5 10Z" fill="#F8B11E"/>
</svg>
