<svg version="1.2" xmlns="http://www.w3.org/2000/svg" viewBox="0 0 30 28" width="30" height="28"><style>.a{fill:#fff}</style><path fill-rule="evenodd" class="a" d="m3.8 22.4c0 0.6 0.4 1 0.9 1h23.4c1.1 0 1.9 0.8 1.9 1.9 0 1-0.8 1.8-1.9 1.8h-23.4c-2.6 0-4.7-2.1-4.7-4.7v-19.6c0-1.1 0.8-1.9 1.9-1.9 1 0 1.9 0.8 1.9 1.9zm23.8-14.7l-7.5 7.5c-0.8 0.8-1.9 0.8-2.7 0l-3.3-3.3-5.3 5.2c-0.7 0.7-1.9 0.7-2.6 0-0.8-0.7-0.8-1.9 0-2.6l6.5-6.6c0.8-0.7 2-0.7 2.7 0l3.3 3.4 6.2-6.2c0.8-0.7 1.9-0.7 2.7 0 0.7 0.7 0.7 1.9 0 2.6z"/><rect x="85.453" y="53.054" fill="#343434" width="129.063" height="193.903" id="screen"/></svg>