<svg width="23" height="22" viewBox="0 0 23 22" fill="none" xmlns="http://www.w3.org/2000/svg">
<path d="M10.6116 1H3.73006C2.49843 1 1.5 1.99843 1.5 3.23006V10.1116C1.5 10.703 1.73495 11.2702 2.15317 11.6884L10.285 19.8202C11.5913 21.1266 13.7093 21.1266 15.0156 19.8202L20.3202 14.5156C21.6266 13.2093 21.6266 11.0913 20.3202 9.78497L12.1884 1.65317C11.7702 1.23495 11.203 1 10.6116 1Z" fill="#00805A"/>
<path d="M6.51764 6.01764H6.52879M3.73006 1H10.6116C11.203 1 11.7702 1.23495 12.1884 1.65317L20.3202 9.78497C21.6266 11.0913 21.6266 13.2093 20.3202 14.5156L15.0156 19.8202C13.7093 21.1266 11.5913 21.1266 10.285 19.8202L2.15317 11.6884C1.73495 11.2702 1.5 10.703 1.5 10.1116V3.23006C1.5 1.99843 2.49843 1 3.73006 1Z" stroke="#141C24" stroke-width="1.5" stroke-linecap="round"/>
</svg>
