<svg width="20" height="20" viewBox="0 0 20 20" fill="none" xmlns="http://www.w3.org/2000/svg">
<g opacity="0.5">
<path d="M18.3327 10.0013C18.3327 14.6037 14.6017 18.3346 9.99935 18.3346C5.39698 18.3346 1.66602 14.6037 1.66602 10.0013C1.66602 5.39893 5.39698 1.66797 9.99935 1.66797C14.6017 1.66797 18.3327 5.39893 18.3327 10.0013Z" fill="#004B8D"/>
<path fill-rule="evenodd" clip-rule="evenodd" d="M9.99935 14.168C9.53911 14.168 9.16602 13.7949 9.16602 13.3346V9.58464C9.16602 9.1244 9.53911 8.7513 9.99935 8.7513C10.4596 8.7513 10.8327 9.1244 10.8327 9.58464V13.3346C10.8327 13.7949 10.4596 14.168 9.99935 14.168Z" fill="white"/>
<path fill-rule="evenodd" clip-rule="evenodd" d="M9.99935 7.91797C9.53911 7.91797 9.16602 7.54487 9.16602 7.08464V6.66797C9.16602 6.20773 9.53911 5.83464 9.99935 5.83464C10.4596 5.83464 10.8327 6.20773 10.8327 6.66797V7.08464C10.8327 7.54487 10.4596 7.91797 9.99935 7.91797Z" fill="white"/>
</g>
</svg>
