<svg width="18" height="18" viewBox="0 0 18 18" fill="none" xmlns="http://www.w3.org/2000/svg">
<g id="Group">
<path id="Vector" d="M2.06406 3.98472L1.70225 4.70833H2.51127H15.4887H16.2977L15.9359 3.98473L15.1822 2.47725C14.9211 1.95492 14.3872 1.625 13.8033 1.625H4.19671C3.61281 1.625 3.07895 1.9549 2.81783 2.47721C2.81782 2.47722 2.81782 2.47724 2.81781 2.47725L2.06406 3.98472ZM16.375 5.45833V4.95833H15.875H2.125H1.625V5.45833V14.8333C1.625 15.6848 2.31523 16.375 3.16667 16.375H14.8333C15.6848 16.375 16.375 15.6848 16.375 14.8333V5.45833ZM2.59421 2.36541L2.147 2.1418L2.59421 2.36541C2.8977 1.75842 3.51809 1.375 4.19671 1.375H13.8033C14.4819 1.375 15.1023 1.75842 15.4058 2.3654L15.4058 2.36541L16.6118 4.77744L16.6118 4.77753C16.6205 4.79484 16.625 4.81392 16.625 4.83333V14.8333C16.625 15.8229 15.8229 16.625 14.8333 16.625H3.16667C2.17715 16.625 1.375 15.8229 1.375 14.8333V4.83333C1.375 4.81394 1.37951 4.79483 1.3882 4.77744C1.3882 4.77743 1.3882 4.77743 1.38821 4.77742L2.59421 2.36541Z" fill="black" stroke="white"/>
<path id="Vector_2" fill-rule="evenodd" clip-rule="evenodd" d="M6.2915 13.1666C6.2915 12.8215 6.57134 12.5416 6.9165 12.5416H11.0832C11.4283 12.5416 11.7082 12.8215 11.7082 13.1666C11.7082 13.5118 11.4283 13.7916 11.0832 13.7916H6.9165C6.57134 13.7916 6.2915 13.5118 6.2915 13.1666Z" fill="#004B8D"/>
</g>
</svg>
