<svg width="27" height="28" viewBox="0 0 27 28" fill="none" xmlns="http://www.w3.org/2000/svg">
<g id="Group 1000002825">
<rect id="Rectangle 22670" x="0.5" y="0.5" width="26" height="27" rx="6.5" stroke="#E2E2E2"/>
<path id="Union" fill-rule="evenodd" clip-rule="evenodd" d="M23 14.5C23 19.7467 18.7467 24 13.5 24C8.25329 24 4 19.7467 4 14.5C4 9.25329 8.25329 5 13.5 5C18.7467 5 23 9.25329 23 14.5ZM12.8119 20.9038V18.0841C11.3436 17.8034 10.1876 16.6426 9.91407 15.1717L7.09605 15.1717C7.40812 18.1863 9.79986 20.5834 12.8119 20.9038ZM7.09978 13.7949H9.92063C10.2056 12.3403 11.355 11.1954 12.8119 10.9169V8.09794C9.81154 8.41706 7.42668 10.7969 7.09978 13.7949ZM17.0879 15.1717L19.9057 15.1717C19.5936 18.1866 17.2013 20.584 14.1887 20.9039V18.0843C15.6578 17.8041 16.8143 16.6431 17.0879 15.1717ZM14.1887 8.09783C17.1896 8.41652 19.575 10.7965 19.9019 13.7949H17.0814C16.7963 12.3399 15.6463 11.1947 14.1887 10.9167V8.09783ZM15.9731 14.4998C15.9731 15.8656 14.8659 16.9729 13.5001 16.9729C12.1342 16.9729 11.027 15.8656 11.027 14.4998C11.027 13.1339 12.1342 12.0267 13.5001 12.0267C14.8659 12.0267 15.9731 13.1339 15.9731 14.4998Z" fill="#004B8D"/>
</g>
</svg>
