<svg width="20" height="20" viewBox="0 0 20 20" fill="none" xmlns="http://www.w3.org/2000/svg">
<path d="M3.33301 4.16634C3.33301 3.7061 3.7061 3.33301 4.16634 3.33301H7.49967C7.95991 3.33301 8.33301 3.7061 8.33301 4.16634V7.49967C8.33301 7.95991 7.95991 8.33301 7.49967 8.33301H4.16634C3.7061 8.33301 3.33301 7.95991 3.33301 7.49967V4.16634Z" stroke="white" stroke-width="1.5" stroke-linecap="round" stroke-linejoin="round"/>
<path d="M3.33301 12.4997C3.33301 12.0394 3.7061 11.6663 4.16634 11.6663H7.49967C7.95991 11.6663 8.33301 12.0394 8.33301 12.4997V15.833C8.33301 16.2932 7.95991 16.6663 7.49967 16.6663H4.16634C3.7061 16.6663 3.33301 16.2932 3.33301 15.833V12.4997Z" stroke="white" stroke-width="1.5" stroke-linecap="round" stroke-linejoin="round"/>
<path d="M11.6663 4.16634C11.6663 3.7061 12.0394 3.33301 12.4997 3.33301H15.833C16.2932 3.33301 16.6663 3.7061 16.6663 4.16634V7.49967C16.6663 7.95991 16.2932 8.33301 15.833 8.33301H12.4997C12.0394 8.33301 11.6663 7.95991 11.6663 7.49967V4.16634Z" stroke="white" stroke-width="1.5" stroke-linecap="round" stroke-linejoin="round"/>
<path d="M11.6663 12.4997C11.6663 12.0394 12.0394 11.6663 12.4997 11.6663H15.833C16.2932 11.6663 16.6663 12.0394 16.6663 12.4997V15.833C16.6663 16.2932 16.2932 16.6663 15.833 16.6663H12.4997C12.0394 16.6663 11.6663 16.2932 11.6663 15.833V12.4997Z" stroke="white" stroke-width="1.5" stroke-linecap="round" stroke-linejoin="round"/>
</svg>
