<svg width="20" height="21" viewBox="0 0 20 21" fill="none" xmlns="http://www.w3.org/2000/svg">
<path d="M14.7137 15.214C13.9385 15.9892 12.984 16.5613 11.9349 16.8795C10.8858 17.1978 9.77435 17.2524 8.69907 17.0385C7.6238 16.8246 6.61787 16.3488 5.77039 15.6533C4.92291 14.9578 4.26003 14.064 3.84048 13.0511C3.42093 12.0383 3.25765 10.9375 3.36511 9.84647C3.47257 8.75541 3.84745 7.70769 4.45655 6.79612C5.06564 5.88454 5.89015 5.13725 6.85703 4.62044C7.82392 4.10363 8.90334 3.83325 9.99968 3.83325M14.7137 15.214L9.99968 10.4999V3.83325M14.7137 15.214C15.6461 14.2816 16.281 13.0937 16.5382 11.8005C16.7955 10.5073 16.6635 9.16687 16.1589 7.9487C15.6543 6.73052 14.7998 5.68933 13.7035 4.95679C12.6071 4.22425 11.3182 3.83325 9.99968 3.83325" stroke="#344051" stroke-width="1.5" stroke-linecap="round" stroke-linejoin="round"/>
</svg>
