<svg width="22" height="19" viewBox="0 0 22 19" fill="none" xmlns="http://www.w3.org/2000/svg">
<path d="M11.9785 4.02917L8.18456 1.83875C7.50554 1.44671 6.63727 1.67936 6.24524 2.35839L4.05482 6.1523C3.86656 6.47838 3.81554 6.86589 3.91299 7.22958L5.80783 14.3012C6.11223 15.4372 7.27992 16.1114 8.41595 15.807L13.029 14.571C14.165 14.2666 14.8392 13.0989 14.5348 11.9628L12.6399 4.89121C12.5425 4.52751 12.3046 4.21743 11.9785 4.02917Z" fill="white"/>
<path fill-rule="evenodd" clip-rule="evenodd" d="M5.8317 2.11953C6.35558 1.21215 7.51586 0.901252 8.42325 1.42513L12.2172 3.61555C12.6529 3.86713 12.9709 4.2815 13.1011 4.76751L14.9959 11.8391C15.3686 13.2299 14.5432 14.6594 13.1525 15.032L8.53948 16.2681C7.14875 16.6407 5.71924 15.8154 5.3466 14.4247L3.45176 7.35304C3.32153 6.86703 3.38971 6.34919 3.64128 5.91345L5.8317 2.11953ZM7.94579 2.25212C7.49513 1.99193 6.91887 2.14633 6.65869 2.59699L4.46827 6.39091C4.34332 6.60732 4.30946 6.86451 4.37414 7.10589L6.26898 14.1775C6.50513 15.0588 7.41101 15.5819 8.29233 15.3457L12.9054 14.1097C13.7867 13.8735 14.3097 12.9676 14.0735 12.0863L12.1787 5.01466C12.114 4.77328 11.9561 4.56748 11.7397 4.44253L7.94579 2.25212ZM7.71073 5.25353C7.84258 5.02516 8.13459 4.94692 8.36295 5.07877L8.3691 5.08232C8.59747 5.21416 8.67571 5.50617 8.54386 5.73454C8.41202 5.9629 8.12001 6.04114 7.89164 5.9093L7.8855 5.90575C7.65713 5.7739 7.57889 5.48189 7.71073 5.25353Z" fill="#D5D5D5"/>
<path d="M13.1162 2.81682L8.94243 1.48597C8.19542 1.24778 7.39675 1.66026 7.15856 2.40727L5.82771 6.58107C5.71333 6.9398 5.74614 7.32927 5.91891 7.66381L9.2784 14.1686C9.81809 15.2136 11.1027 15.6232 12.1477 15.0835L16.3909 12.892C17.4359 12.3523 17.8455 11.0677 17.3058 10.0227L13.9463 3.51795C13.7736 3.1834 13.475 2.9312 13.1162 2.81682Z" fill="white"/>
<path fill-rule="evenodd" clip-rule="evenodd" d="M6.70492 2.26061C7.02322 1.26236 8.09049 0.711157 9.08873 1.02945L13.2625 2.3603C13.7419 2.51315 14.1409 2.85018 14.3718 3.29723L17.7313 9.80202C18.392 11.0813 17.8905 12.6539 16.6113 13.3146L12.368 15.5061C11.0888 16.1668 9.51612 15.6653 8.85543 14.3861L5.49595 7.88129C5.26506 7.43424 5.22122 6.91378 5.37407 6.4344L6.70492 2.26061ZM8.79864 1.93924C8.30286 1.78116 7.77279 2.05492 7.61471 2.5507L6.28386 6.72449C6.20795 6.96258 6.22972 7.22107 6.34439 7.4431L9.70388 13.9479C10.1226 14.7586 11.1192 15.0763 11.9298 14.6576L16.1731 12.4662C16.9838 12.0475 17.3015 11.0509 16.8829 10.2402L13.5234 3.73542C13.4087 3.51339 13.2105 3.346 12.9724 3.27009L8.79864 1.93924ZM9.20914 4.92173C9.28925 4.6705 9.55785 4.53177 9.80908 4.61188L9.81584 4.61404C10.0671 4.69414 10.2058 4.96275 10.1257 5.21398C10.0456 5.46521 9.77698 5.60393 9.52575 5.52382L9.51899 5.52167C9.26775 5.44156 9.12903 5.17296 9.20914 4.92173Z" fill="#6E6E6E"/>
<path d="M14.5006 0.681285L10.1221 0.538469C9.3384 0.512909 8.6824 1.12746 8.65684 1.91111L8.51403 6.28962C8.50175 6.66595 8.63947 7.03173 8.8969 7.30651L13.9022 12.6493C14.7063 13.5076 16.0539 13.5516 16.9122 12.7475L20.3974 9.48241C21.2557 8.67834 21.2997 7.33071 20.4956 6.47241L15.4903 1.12961C15.2329 0.854825 14.8769 0.693559 14.5006 0.681285Z" fill="white"/>
<path fill-rule="evenodd" clip-rule="evenodd" d="M8.17936 1.89613C8.21352 0.848927 9.09014 0.0276898 10.1373 0.0618469L14.5159 0.204662C15.0187 0.221065 15.4945 0.436567 15.8385 0.803759L20.8438 6.14657C21.8281 7.19731 21.7743 8.84708 20.7236 9.83144L17.2383 13.0965C16.1876 14.0809 14.5378 14.0271 13.5535 12.9763L8.54818 7.63352C8.20418 7.26633 8.02015 6.77753 8.03655 6.27464L8.17936 1.89613ZM10.1062 1.01626C9.58611 0.999292 9.15074 1.40716 9.13377 1.92726L8.99096 6.30577C8.98281 6.55553 9.07422 6.7983 9.24506 6.98067L14.2503 12.3235C14.8741 12.9893 15.9196 13.0234 16.5855 12.3996L20.0707 9.13455C20.7366 8.51076 20.7707 7.46529 20.1469 6.79943L15.1416 1.45662C14.9708 1.27425 14.7345 1.16722 14.4847 1.15907L10.1062 1.01626ZM11.3141 3.77393C11.3227 3.51037 11.5433 3.30369 11.8069 3.31229L11.814 3.31252C12.0775 3.32111 12.2842 3.54173 12.2756 3.80529C12.267 4.06884 12.0464 4.27552 11.7828 4.26693L11.7757 4.2667C11.5122 4.2581 11.3055 4.03748 11.3141 3.77393Z" fill="#00805A"/>
</svg>
