<svg width="28" height="28" viewBox="0 0 28 28" fill="none" xmlns="http://www.w3.org/2000/svg">
<path d="M14 9.51797L14 15.3108M14 19.6554H14.0151M11.3584 2.48979L1.38463 19.697C0.265635 21.6275 1.7221 24 4.02625 24H23.9737C26.2779 24 27.7344 21.6275 26.6154 19.697L16.6416 2.48979C15.4903 0.503406 12.5097 0.503403 11.3584 2.48979Z" stroke="#D31245" stroke-width="1.5" stroke-linecap="round"/>
<path d="M1 21.4828L12.7647 1L15.7059 1.75862L27 21L25 23.5H3L1 21.4828Z" fill="#D31245"/>
<path d="M15.008 16.432H13.472L13.072 8.576H15.408L15.008 16.432ZM13.008 18.976C13.008 18.528 13.1253 18.2133 13.36 18.032C13.5947 17.84 13.888 17.744 14.24 17.744C14.5707 17.744 14.8533 17.8347 15.088 18.016C15.3333 18.1973 15.456 18.5173 15.456 18.976C15.456 19.4133 15.3333 19.728 15.088 19.92C14.8533 20.112 14.5707 20.208 14.24 20.208C13.888 20.208 13.5947 20.112 13.36 19.92C13.1253 19.728 13.008 19.4133 13.008 18.976Z" fill="white"/>
</svg>
