<svg width="44" height="44" viewBox="0 0 44 44" fill="none" xmlns="http://www.w3.org/2000/svg">
<path d="M7 21C7 13.2661 13.2661 7 21 7C28.7339 7 35 13.2661 35 21C35 28.7339 28.7339 35 21 35C13.2661 35 7 28.7339 7 21ZM20.0403 14.5702L12.3911 22.2194C11.8605 22.75 11.8605 23.6081 12.3911 24.1331L13.3508 25.0927C13.8815 25.6234 14.7395 25.6234 15.2645 25.0927L21 19.3573L26.7355 25.0927C27.2661 25.6234 28.1242 25.6234 28.6492 25.0927L29.6089 24.1331C30.1395 23.6024 30.1395 22.7444 29.6089 22.2194L21.9597 14.5702C21.429 14.0395 20.571 14.0395 20.0403 14.5702Z" fill="white"/>
</svg>
