<svg width="16" height="16" viewBox="0 0 16 16" fill="none" xmlns="http://www.w3.org/2000/svg">
<path d="M11.3359 4.74992C10.9217 4.74992 10.5859 5.08571 10.5859 5.49992C10.5859 5.91413 10.9217 6.24992 11.3359 6.24992V4.74992ZM4.66927 6.24992C5.08348 6.24992 5.41927 5.91413 5.41927 5.49992C5.41927 5.08571 5.08348 4.74992 4.66927 4.74992V6.24992ZM2.23431 14.4789L1.88858 15.1445H1.88858L2.23431 14.4789ZM1.52358 13.7682L2.18914 13.4225L2.18914 13.4225L1.52358 13.7682ZM14.4816 13.7682L15.1472 14.1139V14.1139L14.4816 13.7682ZM13.7709 14.4789L14.1166 15.1445H14.1166L13.7709 14.4789ZM14.4816 6.39829L15.1472 6.05256V6.05256L14.4816 6.39829ZM13.7709 5.68756L13.4252 6.35312H13.4252L13.7709 5.68756ZM1.52358 6.39829L0.858022 6.05256L1.52358 6.39829ZM2.23431 5.68756L1.88858 5.022H1.88858L2.23431 5.68756ZM8.7526 1.33325C8.7526 0.919038 8.41682 0.583252 8.0026 0.583252C7.58839 0.583252 7.2526 0.919038 7.2526 1.33325H8.7526ZM8.0026 9.66658L7.47227 10.1969C7.76517 10.4898 8.24004 10.4898 8.53293 10.1969L8.0026 9.66658ZM6.4496 7.05292C6.15671 6.76003 5.68183 6.76003 5.38894 7.05292C5.09605 7.34581 5.09605 7.82069 5.38894 8.11358L6.4496 7.05292ZM10.6163 8.11358C10.9092 7.82069 10.9092 7.34581 10.6163 7.05292C10.3234 6.76003 9.8485 6.76003 9.55561 7.05292L10.6163 8.11358ZM13.9193 8.18325V11.9833H15.4193V8.18325H13.9193ZM11.9859 13.9166H4.01927V15.4166H11.9859V13.9166ZM2.08594 11.9833V8.18325H0.585938V11.9833H2.08594ZM11.3359 6.24992H11.9859V4.74992H11.3359V6.24992ZM4.01927 6.24992H4.66927V4.74992H4.01927V6.24992ZM4.01927 13.9166C3.53211 13.9166 3.21259 13.916 2.96839 13.8957C2.73317 13.8762 2.63576 13.8423 2.58004 13.8134L1.88858 15.1445C2.19409 15.3032 2.51459 15.3632 2.84425 15.3906C3.16493 15.4172 3.55728 15.4166 4.01927 15.4166V13.9166ZM0.585938 11.9833C0.585938 12.4452 0.585335 12.8376 0.611966 13.1583C0.639343 13.4879 0.699321 13.8084 0.858022 14.1139L2.18914 13.4225C2.1602 13.3668 2.12635 13.2694 2.10682 13.0341C2.08654 12.7899 2.08594 12.4704 2.08594 11.9833H0.585938ZM2.58005 13.8134C2.41262 13.7264 2.27611 13.5899 2.18914 13.4225L0.858021 14.1139C1.0873 14.5553 1.4472 14.9152 1.88858 15.1445L2.58005 13.8134ZM13.9193 11.9833C13.9193 12.4704 13.9187 12.7899 13.8984 13.0341C13.8789 13.2694 13.845 13.3668 13.8161 13.4225L15.1472 14.1139C15.3059 13.8084 15.3659 13.4879 15.3932 13.1583C15.4199 12.8376 15.4193 12.4452 15.4193 11.9833H13.9193ZM11.9859 15.4166C12.4479 15.4166 12.8403 15.4172 13.161 15.3906C13.4906 15.3632 13.8111 15.3032 14.1166 15.1445L13.4252 13.8134C13.3694 13.8423 13.272 13.8762 13.0368 13.8957C12.7926 13.916 12.4731 13.9166 11.9859 13.9166V15.4166ZM13.8161 13.4225C13.7291 13.5899 13.5926 13.7264 13.4252 13.8134L14.1166 15.1445C14.558 14.9152 14.9179 14.5553 15.1472 14.1139L13.8161 13.4225ZM15.4193 8.18325C15.4193 7.72126 15.4199 7.32891 15.3932 7.00823C15.3659 6.67857 15.3059 6.35808 15.1472 6.05256L13.8161 6.74403C13.845 6.79974 13.8789 6.89715 13.8984 7.13237C13.9187 7.37658 13.9193 7.69609 13.9193 8.18325H15.4193ZM11.9859 6.24992C12.4731 6.24992 12.7926 6.25052 13.0368 6.2708C13.272 6.29034 13.3694 6.32418 13.4252 6.35312L14.1166 5.022C13.8111 4.8633 13.4906 4.80332 13.161 4.77595C12.8403 4.74932 12.4479 4.74992 11.9859 4.74992V6.24992ZM15.1472 6.05256C14.9179 5.61118 14.558 5.25129 14.1166 5.022L13.4252 6.35312C13.5926 6.44009 13.7291 6.5766 13.8161 6.74403L15.1472 6.05256ZM2.08594 8.18325C2.08594 7.69609 2.08654 7.37658 2.10682 7.13237C2.12635 6.89715 2.1602 6.79974 2.18914 6.74403L0.858022 6.05256C0.699321 6.35808 0.639343 6.67857 0.611966 7.00823C0.585335 7.32891 0.585938 7.72127 0.585938 8.18325H2.08594ZM4.01927 4.74992C3.55728 4.74992 3.16493 4.74932 2.84425 4.77595C2.51459 4.80332 2.19409 4.8633 1.88858 5.022L2.58004 6.35312C2.63576 6.32418 2.73317 6.29034 2.96839 6.2708C3.21259 6.25052 3.53211 6.24992 4.01927 6.24992V4.74992ZM2.18914 6.74403C2.27611 6.5766 2.41262 6.44009 2.58004 6.35312L1.88858 5.022C1.4472 5.25129 1.0873 5.61118 0.858022 6.05256L2.18914 6.74403ZM7.2526 1.33325V9.66658H8.7526V1.33325H7.2526ZM8.53293 9.13625L6.4496 7.05292L5.38894 8.11358L7.47227 10.1969L8.53293 9.13625ZM8.53293 10.1969L10.6163 8.11358L9.55561 7.05292L7.47227 9.13625L8.53293 10.1969Z" fill="#00573D"/>
</svg>
