<svg width="20" height="20" viewBox="0 0 20 20" fill="none" xmlns="http://www.w3.org/2000/svg">
<path d="M13.334 6.74992C12.9198 6.74992 12.584 7.08571 12.584 7.49992C12.584 7.91413 12.9198 8.24992 13.334 8.24992V6.74992ZM6.66732 8.24992C7.08153 8.24992 7.41732 7.91413 7.41732 7.49992C7.41732 7.08571 7.08153 6.74992 6.66732 6.74992V8.24992ZM4.23236 16.4789L3.88663 17.1445H3.88663L4.23236 16.4789ZM3.52163 15.7682L4.18719 15.4225L4.18719 15.4225L3.52163 15.7682ZM16.4797 15.7682L17.1452 16.1139V16.1139L16.4797 15.7682ZM15.7689 16.4789L16.1147 17.1445H16.1147L15.7689 16.4789ZM16.4797 8.39829L17.1452 8.05256V8.05256L16.4797 8.39829ZM15.7689 7.68756L15.4232 8.35312H15.4232L15.7689 7.68756ZM3.52163 8.39829L2.85607 8.05256L3.52163 8.39829ZM4.23236 7.68756L3.88663 7.022H3.88663L4.23236 7.68756ZM10.7507 3.33325C10.7507 2.91904 10.4149 2.58325 10.0007 2.58325C9.58644 2.58325 9.25065 2.91904 9.25065 3.33325H10.7507ZM10.0007 11.6666L9.47032 12.1969C9.76321 12.4898 10.2381 12.4898 10.531 12.1969L10.0007 11.6666ZM8.44765 9.05292C8.15475 8.76003 7.67988 8.76003 7.38699 9.05292C7.09409 9.34581 7.09409 9.82069 7.38699 10.1136L8.44765 9.05292ZM12.6143 10.1136C12.9072 9.82069 12.9072 9.34581 12.6143 9.05292C12.3214 8.76003 11.8465 8.76003 11.5537 9.05292L12.6143 10.1136ZM15.9173 10.1833V13.9833H17.4173V10.1833H15.9173ZM13.984 15.9166H6.01732V17.4166H13.984V15.9166ZM4.08398 13.9833V10.1833H2.58398V13.9833H4.08398ZM13.334 8.24992H13.984V6.74992H13.334V8.24992ZM6.01732 8.24992H6.66732V6.74992H6.01732V8.24992ZM6.01732 15.9166C5.53015 15.9166 5.21064 15.916 4.96644 15.8957C4.73121 15.8762 4.63381 15.8423 4.57809 15.8134L3.88663 17.1445C4.19214 17.3032 4.51264 17.3632 4.8423 17.3906C5.16298 17.4172 5.55533 17.4166 6.01732 17.4166V15.9166ZM2.58398 13.9833C2.58398 14.4452 2.58338 14.8376 2.61001 15.1583C2.63739 15.4879 2.69737 15.8084 2.85607 16.1139L4.18719 15.4225C4.15824 15.3668 4.1244 15.2694 4.10487 15.0341C4.08459 14.7899 4.08398 14.4704 4.08398 13.9833H2.58398ZM4.57809 15.8134C4.41067 15.7264 4.27416 15.5899 4.18719 15.4225L2.85607 16.1139C3.08535 16.5553 3.44524 16.9152 3.88663 17.1445L4.57809 15.8134ZM15.9173 13.9833C15.9173 14.4704 15.9167 14.7899 15.8964 15.0341C15.8769 15.2694 15.8431 15.3668 15.8141 15.4225L17.1452 16.1139C17.3039 15.8084 17.3639 15.4879 17.3913 15.1583C17.4179 14.8376 17.4173 14.4452 17.4173 13.9833H15.9173ZM13.984 17.4166C14.446 17.4166 14.8383 17.4172 15.159 17.3906C15.4887 17.3632 15.8092 17.3032 16.1147 17.1445L15.4232 15.8134C15.3675 15.8423 15.2701 15.8762 15.0349 15.8957C14.7907 15.916 14.4711 15.9166 13.984 15.9166V17.4166ZM15.8141 15.4225C15.7271 15.5899 15.5906 15.7264 15.4232 15.8134L16.1147 17.1445C16.5561 16.9152 16.9159 16.5553 17.1452 16.1139L15.8141 15.4225ZM17.4173 10.1833C17.4173 9.72126 17.4179 9.32891 17.3913 9.00823C17.3639 8.67857 17.3039 8.35808 17.1452 8.05256L15.8141 8.74403C15.8431 8.79974 15.8769 8.89715 15.8964 9.13237C15.9167 9.37658 15.9173 9.69609 15.9173 10.1833H17.4173ZM13.984 8.24992C14.4711 8.24992 14.7907 8.25052 15.0349 8.2708C15.2701 8.29034 15.3675 8.32418 15.4232 8.35312L16.1147 7.022C15.8092 6.8633 15.4887 6.80332 15.159 6.77595C14.8383 6.74932 14.446 6.74992 13.984 6.74992V8.24992ZM17.1452 8.05256C16.9159 7.61118 16.5561 7.25129 16.1147 7.022L15.4232 8.35312C15.5906 8.44009 15.7271 8.5766 15.8141 8.74403L17.1452 8.05256ZM4.08398 10.1833C4.08398 9.69609 4.08459 9.37658 4.10487 9.13237C4.1244 8.89715 4.15824 8.79974 4.18719 8.74403L2.85607 8.05256C2.69737 8.35808 2.63739 8.67857 2.61001 9.00823C2.58338 9.32891 2.58398 9.72127 2.58398 10.1833H4.08398ZM6.01732 6.74992C5.55533 6.74992 5.16298 6.74932 4.8423 6.77595C4.51264 6.80332 4.19214 6.8633 3.88663 7.022L4.57809 8.35312C4.63381 8.32418 4.73121 8.29034 4.96644 8.2708C5.21064 8.25052 5.53015 8.24992 6.01732 8.24992V6.74992ZM4.18719 8.74403C4.27416 8.5766 4.41067 8.44009 4.57809 8.35312L3.88663 7.022C3.44524 7.25129 3.08535 7.61118 2.85607 8.05256L4.18719 8.74403ZM9.25065 3.33325V11.6666H10.7507V3.33325H9.25065ZM10.531 11.1363L8.44765 9.05292L7.38699 10.1136L9.47032 12.1969L10.531 11.1363ZM10.531 12.1969L12.6143 10.1136L11.5537 9.05292L9.47032 11.1363L10.531 12.1969Z" fill="#00573D"/>
</svg>
