<svg width="21" height="20" viewBox="0 0 21 20" fill="none" xmlns="http://www.w3.org/2000/svg">
<g id="Settings">
<g id="Vector">
<path d="M9.66687 2.5C9.20664 2.5 8.83354 2.8731 8.83354 3.33333V4.6952C8.83354 5.04838 8.60758 5.3571 8.29084 5.51336C8.09293 5.61101 7.9024 5.72137 7.72034 5.84337C7.42685 6.04004 7.04637 6.08142 6.74041 5.90477L5.56004 5.22329C5.16146 4.99317 4.6518 5.12973 4.42168 5.52831L3.58835 6.97168C3.35823 7.37026 3.49479 7.87992 3.89337 8.11004L5.07385 8.79159C5.3794 8.968 5.53391 9.31755 5.51095 9.66962C5.50382 9.77883 5.50021 9.88899 5.50021 10C5.50021 10.111 5.50382 10.2212 5.51095 10.3304C5.53391 10.6824 5.3794 11.032 5.07385 11.2084L3.89337 11.89C3.49479 12.1201 3.35823 12.6297 3.58835 13.0283L4.42168 14.4717C4.6518 14.8703 5.16146 15.0068 5.56004 14.7767L6.7404 14.0952C7.04636 13.9186 7.42684 13.96 7.72034 14.1566C7.9024 14.2786 8.09293 14.389 8.29085 14.4866C8.60758 14.6429 8.83354 14.9516 8.83354 15.3048V16.6667C8.83354 17.1269 9.20664 17.5 9.66687 17.5H11.3335C11.7938 17.5 12.1669 17.1269 12.1669 16.6667V15.3048C12.1669 14.9516 12.3928 14.6429 12.7096 14.4866C12.9075 14.389 13.098 14.2786 13.2801 14.1566C13.5736 13.96 13.954 13.9186 14.26 14.0952L15.4404 14.7767C15.839 15.0068 16.3486 14.8703 16.5787 14.4717L17.4121 13.0283C17.6422 12.6297 17.5056 12.1201 17.107 11.89L15.9266 11.2084C15.621 11.032 15.4665 10.6824 15.4895 10.3304C15.4966 10.2212 15.5002 10.111 15.5002 10C15.5002 9.88899 15.4966 9.77883 15.4895 9.66962C15.4665 9.31755 15.621 8.968 15.9266 8.79159L17.107 8.11004C17.5056 7.87992 17.6422 7.37026 17.4121 6.97168L16.5787 5.52831C16.3486 5.12973 15.839 4.99317 15.4404 5.22329L14.26 5.90477C13.954 6.08142 13.5736 6.04004 13.2801 5.84337C13.098 5.72137 12.9075 5.61101 12.7096 5.51336C12.3928 5.3571 12.1669 5.04838 12.1669 4.6952V3.33333C12.1669 2.8731 11.7938 2.5 11.3335 2.5H9.66687Z" stroke="#9FA1A4" stroke-width="1.5" stroke-linecap="round" stroke-linejoin="round"/>
<path d="M13.0002 10C13.0002 11.3807 11.8809 12.5 10.5002 12.5C9.11949 12.5 8.00021 11.3807 8.00021 10C8.00021 8.61929 9.11949 7.5 10.5002 7.5C11.8809 7.5 13.0002 8.61929 13.0002 10Z" stroke="#9FA1A4" stroke-width="1.5" stroke-linecap="round" stroke-linejoin="round"/>
</g>
</g>
</svg>
