<svg width="21" height="20" viewBox="0 0 21 20" fill="none" xmlns="http://www.w3.org/2000/svg">
<path d="M5.10655 13.9186C6.05016 15.2173 7.43074 16.132 8.99465 16.4945C10.5586 16.857 12.2008 16.643 13.6195 15.8918C15.0383 15.1406 16.1383 13.9026 16.7176 12.4054C17.2968 10.9082 17.3163 9.25222 16.7725 7.74176C16.2287 6.23129 15.1581 4.96779 13.7575 4.18337C12.3568 3.39895 10.7201 3.14631 9.14808 3.47186C7.57606 3.7974 6.17432 4.67928 5.20037 5.95546C4.22642 7.23164 3.74568 8.81641 3.84648 10.4186M3.84648 10.4186L2.59648 9.16861M3.84648 10.4186L5.09648 9.16861M10.5 6.66666V10L13 12.5" stroke="white" stroke-width="1.5" stroke-linecap="round" stroke-linejoin="round"/>
</svg>
