<svg width="106" height="106" viewBox="0 0 106 106" fill="none" xmlns="http://www.w3.org/2000/svg">
<path d="M26.5 8.83301L13.25 26.4997V88.333C13.25 90.6758 14.1807 92.9226 15.8372 94.5791C17.4938 96.2357 19.7406 97.1663 22.0833 97.1663H83.9167C86.2594 97.1663 88.5062 96.2357 90.1628 94.5791C91.8193 92.9226 92.75 90.6758 92.75 88.333V26.4997L79.5 8.83301H26.5Z" stroke="#004B8D" stroke-width="2" stroke-linecap="round" stroke-linejoin="round"/>
<path d="M13.25 26.5H92.75" stroke="#004B8D" stroke-width="2" stroke-linecap="round" stroke-linejoin="round"/>
<path d="M70.6673 44.167C70.6673 48.8525 68.806 53.3461 65.4929 56.6592C62.1797 59.9724 57.6861 61.8337 53.0006 61.8337C48.3152 61.8337 43.8216 59.9724 40.5084 56.6592C37.1953 53.3461 35.334 48.8525 35.334 44.167" stroke="#004B8D" stroke-width="2" stroke-linecap="round" stroke-linejoin="round"/>
</svg>
