<svg width="20" height="19" viewBox="0 0 20 19" fill="none" xmlns="http://www.w3.org/2000/svg">
<path d="M0 15.625C0 16.3164 0.558594 16.875 1.25 16.875H3.38672C3.86719 17.9805 4.96875 18.75 6.25 18.75C7.53125 18.75 8.63281 17.9805 9.11328 16.875H18.75C19.4414 16.875 20 16.3164 20 15.625C20 14.9336 19.4414 14.375 18.75 14.375H9.11328C8.63281 13.2695 7.53125 12.5 6.25 12.5C4.96875 12.5 3.86719 13.2695 3.38672 14.375H1.25C0.558594 14.375 0 14.9336 0 15.625ZM5 15.625C5 15.2935 5.1317 14.9755 5.36612 14.7411C5.60054 14.5067 5.91848 14.375 6.25 14.375C6.58152 14.375 6.89946 14.5067 7.13388 14.7411C7.3683 14.9755 7.5 15.2935 7.5 15.625C7.5 15.9565 7.3683 16.2745 7.13388 16.5089C6.89946 16.7433 6.58152 16.875 6.25 16.875C5.91848 16.875 5.60054 16.7433 5.36612 16.5089C5.1317 16.2745 5 15.9565 5 15.625ZM12.5 9.375C12.5 9.04348 12.6317 8.72554 12.8661 8.49112C13.1005 8.2567 13.4185 8.125 13.75 8.125C14.0815 8.125 14.3995 8.2567 14.6339 8.49112C14.8683 8.72554 15 9.04348 15 9.375C15 9.70652 14.8683 10.0245 14.6339 10.2589C14.3995 10.4933 14.0815 10.625 13.75 10.625C13.4185 10.625 13.1005 10.4933 12.8661 10.2589C12.6317 10.0245 12.5 9.70652 12.5 9.375ZM13.75 6.25C12.4688 6.25 11.3672 7.01953 10.8867 8.125H1.25C0.558594 8.125 0 8.68359 0 9.375C0 10.0664 0.558594 10.625 1.25 10.625H10.8867C11.3672 11.7305 12.4688 12.5 13.75 12.5C15.0312 12.5 16.1328 11.7305 16.6133 10.625H18.75C19.4414 10.625 20 10.0664 20 9.375C20 8.68359 19.4414 8.125 18.75 8.125H16.6133C16.1328 7.01953 15.0312 6.25 13.75 6.25ZM7.5 4.375C7.16848 4.375 6.85054 4.2433 6.61612 4.00888C6.3817 3.77446 6.25 3.45652 6.25 3.125C6.25 2.79348 6.3817 2.47554 6.61612 2.24112C6.85054 2.0067 7.16848 1.875 7.5 1.875C7.83152 1.875 8.14946 2.0067 8.38388 2.24112C8.6183 2.47554 8.75 2.79348 8.75 3.125C8.75 3.45652 8.6183 3.77446 8.38388 4.00888C8.14946 4.2433 7.83152 4.375 7.5 4.375ZM10.3633 1.875C9.88281 0.769531 8.78125 0 7.5 0C6.21875 0 5.11719 0.769531 4.63672 1.875H1.25C0.558594 1.875 0 2.43359 0 3.125C0 3.81641 0.558594 4.375 1.25 4.375H4.63672C5.11719 5.48047 6.21875 6.25 7.5 6.25C8.78125 6.25 9.88281 5.48047 10.3633 4.375H18.75C19.4414 4.375 20 3.81641 20 3.125C20 2.43359 19.4414 1.875 18.75 1.875H10.3633Z" fill="white"/>
</svg>
