<svg width="21" height="20" viewBox="0 0 21 20" fill="none" xmlns="http://www.w3.org/2000/svg">
<path d="M19.3089 4.05668L19.3089 4.0567C19.7437 5.80506 19.2779 7.73177 17.911 9.09871C16.4399 10.5698 14.3252 10.9768 12.4766 10.3605L12.4569 10.3539L12.4422 10.3686L4.5301 18.2807C3.61589 19.1949 2.13354 19.1949 1.21934 18.2807C0.305126 17.3665 0.305126 15.8841 1.21934 14.9699L9.13809 7.05115L9.15275 7.03649L9.14626 7.0168C8.53764 5.16881 8.94027 3.05004 10.4017 1.58866C11.7671 0.223559 13.6909 -0.242963 15.4381 0.189978C15.7503 0.267617 15.8594 0.654693 15.6325 0.881598L12.873 3.64105L12.8608 3.6533L12.8636 3.67039L13.2833 6.18937L13.2873 6.21311L13.311 6.21706L15.83 6.63677L15.8471 6.63961L15.8593 6.62736L18.6188 3.86791C18.8447 3.64195 19.2322 3.74744 19.3089 4.05668ZM1.95079 16.6249C1.95079 17.1352 2.36479 17.5492 2.87509 17.5492C3.38539 17.5492 3.79939 17.1352 3.79939 16.6249C3.79939 16.1142 3.38538 15.7006 2.87509 15.7006C2.3648 15.7006 1.95079 16.1142 1.95079 16.6249ZM17.9348 9.12252C19.3104 7.74688 19.7791 5.80792 19.3416 4.04857L1.19552 14.9461C0.26816 15.8734 0.26816 17.3771 1.19552 18.3045C2.12288 19.2318 3.62655 19.2318 4.55391 18.3045L12.466 10.3924C14.3259 11.0125 16.4541 10.6032 17.9348 9.12252Z" fill="#F3F3F3" stroke="white" stroke-width="0.0673567"/>
</svg>
