<svg width="21" height="23" viewBox="0 0 21 23" fill="none" xmlns="http://www.w3.org/2000/svg">
<path d="M11.174 1.10722L13.2667 7.93921L20.0987 10.0319C20.9083 10.2799 20.9083 11.426 20.0987 11.674L13.2667 13.7667L11.174 20.5987C10.926 21.4083 9.77987 21.4083 9.53188 20.5987L7.43921 13.7667L0.607221 11.674C-0.202407 11.426 -0.202407 10.2799 0.607221 10.0319L7.43921 7.93921L9.53188 1.10722C9.77987 0.297593 10.926 0.297593 11.174 1.10722Z" fill="url(#paint0_linear_18240_9902)"/>
<path d="M4.19025 14.9628L4.975 17.5248L7.537 18.3096C7.84061 18.4026 7.84061 18.8324 7.537 18.9254L4.975 19.7101L4.19025 22.2721C4.09725 22.5757 3.66745 22.5757 3.57445 22.2721L2.7897 19.7101L0.227708 18.9254C-0.0759027 18.8324 -0.0759027 18.4026 0.227708 18.3096L2.7897 17.5248L3.57445 14.9628C3.66745 14.6592 4.09725 14.6592 4.19025 14.9628Z" fill="url(#paint1_linear_18240_9902)"/>
<defs>
<linearGradient id="paint0_linear_18240_9902" x1="1.72549" y1="8.2647" x2="19.4118" y2="25.951" gradientUnits="userSpaceOnUse">
<stop stop-color="#39BAFF"/>
<stop offset="0.340278" stop-color="#F4D154"/>
<stop offset="1" stop-color="#FF7D46"/>
</linearGradient>
<linearGradient id="paint1_linear_18240_9902" x1="-21.2704" y1="-6.56316" x2="24.7396" y2="39.498" gradientUnits="userSpaceOnUse">
<stop stop-color="#39BAFF"/>
<stop offset="1" stop-color="#001695"/>
</linearGradient>
</defs>
</svg>
