<svg width="24" height="24" viewBox="0 0 24 24" fill="none" xmlns="http://www.w3.org/2000/svg">
<path d="M20.8416 6.04857C20.7585 5.71347 20.3391 5.59992 20.095 5.8441L17.3355 8.60355L14.8165 8.18384L14.3968 5.66486L17.1563 2.90541C17.4019 2.65975 17.2836 2.24116 16.9462 2.15729C15.188 1.72163 13.252 2.19106 11.8778 3.56484C10.4068 5.03586 10.002 7.16816 10.6143 9.02733L2.69552 16.9461C1.76816 17.8734 1.76816 19.3771 2.69552 20.3045C3.62288 21.2318 5.12655 21.2318 6.05391 20.3045L13.966 12.3924C15.8259 13.0125 17.9541 12.6032 19.4348 11.1225C20.8104 9.74688 21.2791 7.80792 20.8416 6.04857ZM4.37509 19.5155C3.88339 19.5155 3.48446 19.1166 3.48446 18.6249C3.48446 18.1328 3.88339 17.7343 4.37509 17.7343C4.86679 17.7343 5.26571 18.1328 5.26571 18.6249C5.26571 19.1166 4.86679 19.5155 4.37509 19.5155Z" fill="black"/>
</svg>
