<svg width="20" height="20" viewBox="0 0 20 20" fill="none" xmlns="http://www.w3.org/2000/svg">
<g id="Info Fill">
<g id="Vector" opacity="0.5">
<path d="M18.3332 9.99984C18.3332 14.6022 14.6022 18.3332 9.99984 18.3332C5.39746 18.3332 1.6665 14.6022 1.6665 9.99984C1.6665 5.39746 5.39746 1.6665 9.99984 1.6665C14.6022 1.6665 18.3332 5.39746 18.3332 9.99984Z" fill="#004B8D"/>
<path fill-rule="evenodd" clip-rule="evenodd" d="M9.99984 14.1665C9.5396 14.1665 9.1665 13.7934 9.1665 13.3332V9.58317C9.1665 9.12293 9.5396 8.74984 9.99984 8.74984C10.4601 8.74984 10.8332 9.12293 10.8332 9.58317V13.3332C10.8332 13.7934 10.4601 14.1665 9.99984 14.1665Z" fill="white"/>
<path fill-rule="evenodd" clip-rule="evenodd" d="M9.99984 7.9165C9.5396 7.9165 9.1665 7.54341 9.1665 7.08317V6.6665C9.1665 6.20627 9.5396 5.83317 9.99984 5.83317C10.4601 5.83317 10.8332 6.20627 10.8332 6.6665V7.08317C10.8332 7.54341 10.4601 7.9165 9.99984 7.9165Z" fill="white"/>
</g>
</g>
</svg>
