<svg width="16" height="16" viewBox="0 0 16 16" fill="none" xmlns="http://www.w3.org/2000/svg">
<path d="M2.4117 7.981L2.41134 7.99051V8.00003C2.41134 11.0574 4.89792 13.544 7.95532 13.544C11.0127 13.544 13.4993 11.0574 13.4993 8.00009V7.99061L13.4989 7.98113C13.2221 0.659629 2.68966 0.656926 2.4117 7.981ZM7.96449 14.6409C-0.841982 14.3115 -0.843292 1.68968 7.96444 1.35914C11.6312 1.36406 14.5962 4.33268 14.5962 8.00003C14.5962 11.668 11.6306 14.636 7.96449 14.6409Z" fill="black" stroke="#344051" stroke-width="1.00392"/>
<path d="M7.95532 7.57983C7.72364 7.57983 7.53516 7.76832 7.53516 8C7.55625 8.55664 8.35448 8.5565 8.37549 8C8.37549 7.76832 8.187 7.57983 7.95532 7.57983Z" fill="black"/>
<path d="M11.5751 5.8688C11.2155 5.26037 10.7071 4.75006 10.1001 4.38827C9.89009 4.59953 9.75894 4.73143 9.75805 4.73233C8.7625 5.72787 7.14841 5.72787 6.15286 4.73233C6.03586 4.61426 5.92242 4.49972 5.81158 4.38782C5.20421 4.74967 4.69541 5.26023 4.33569 5.86897C4.55194 6.08541 4.68723 6.22084 4.68777 6.2214C5.68331 7.21695 5.68331 8.83107 4.68777 9.82661C4.56603 9.94661 4.45432 10.0568 4.35166 10.1581C4.71032 10.7547 5.21284 11.2553 5.81093 11.6118C5.91513 11.5069 6.02883 11.3925 6.15286 11.2677C7.14841 10.2721 8.7625 10.2721 9.75805 11.2677C9.75894 11.2686 9.89009 11.4005 10.1001 11.6117C10.6981 11.2552 11.2006 10.7547 11.5593 10.158C11.4565 10.0567 11.3448 9.94653 11.2231 9.82659C10.2276 8.83104 10.2276 7.21692 11.2231 6.22138C11.3437 6.10059 11.4608 5.98336 11.5751 5.8688ZM7.95544 9.26051C7.26043 9.26051 6.69494 8.69507 6.69494 8C6.75833 6.33006 9.15284 6.33053 9.21595 8.00003C9.21595 8.69507 8.65048 9.26051 7.95544 9.26051Z" fill="black"/>
<path d="M1.616 3.14656C2.04589 2.5874 2.54188 2.09118 3.10219 1.66043C2.9718 1.53009 2.84412 1.40272 2.71821 1.27737C2.30802 0.867178 1.64289 0.867178 1.2327 1.27737C0.8225 1.68757 0.8225 2.3527 1.2327 2.76289C1.23351 2.7637 1.38172 2.91208 1.616 3.14656Z" fill="black"/>
<path d="M14.2945 3.14625C14.4248 3.01589 14.5524 2.88841 14.678 2.76289C15.0882 2.35267 15.0882 1.68757 14.678 1.27737C14.2678 0.867178 13.6027 0.867178 13.1925 1.27737C13.1916 1.27824 13.0437 1.42695 12.8103 1.66183C13.3558 2.08138 13.8545 2.57404 14.2945 3.14625Z" fill="black"/>
<path d="M1.61911 12.8577C1.49637 12.9782 1.36782 13.1045 1.2327 13.2372C0.8225 13.6474 0.8225 14.3125 1.2327 14.7227C1.64289 15.133 2.30802 15.133 2.71821 14.7227C2.85169 14.5882 2.97863 14.4602 3.09987 14.3379C2.54261 13.9092 2.04816 13.4149 1.61911 12.8577Z" fill="black"/>
<path d="M14.2916 12.8577C13.8626 13.4148 13.3681 13.9092 12.8103 14.3383C13.0438 14.5732 13.1916 14.7218 13.1925 14.7227C13.6027 15.133 14.2678 15.133 14.678 14.7227C15.0882 14.3125 15.0882 13.6474 14.678 13.2372C14.5429 13.1045 14.4143 12.9782 14.2916 12.8577Z" fill="black"/>
</svg>
