<svg width="24" height="24" viewBox="0 0 24 24" fill="none" xmlns="http://www.w3.org/2000/svg">
<path fill-rule="evenodd" clip-rule="evenodd" d="M10.2321 4C11.0178 2.66667 12.9822 2.66667 13.7679 4L21.7235 17.5C22.5092 18.8333 21.527 20.5 19.9556 20.5H4.04444C2.47297 20.5 1.49081 18.8333 2.27654 17.5L10.2321 4ZM12 7.5C12.5523 7.5 13 7.94772 13 8.5V13C13 13.5523 12.5523 14 12 14C11.4477 14 11 13.5523 11 13V8.5C11 7.94772 11.4477 7.5 12 7.5ZM13 16C13 15.4477 12.5523 15 12 15C11.4477 15 11 15.4477 11 16V16.1C11 16.6523 11.4477 17.1 12 17.1C12.5523 17.1 13 16.6523 13 16.1V16Z" fill="#CC8800"/>
</svg>
